<svg width="127" height="60" viewBox="0 0 127 60" fill="none" xmlns="http://www.w3.org/2000/svg">
<g filter="url(#filter0_d_40_38)">
<path d="M37.273 20.8059C34.7572 22.9338 34.6589 27.6084 38.5804 28.0649H46.1075C48.1671 27.7777 49.6465 25.8762 50.3416 24.7263C51.0948 23.4801 50.6555 22.5194 50.3416 22.1948L55.5085 17.1059L53.6967 32.1686L38.2054 32.1947L38.1279 35.874L53.2512 35.8726C52.9696 38.2138 50.9834 39.9757 48.6253 39.976L38.0549 39.9777L38.0016 43.6837H52.3116C52.0299 46.0257 50.0448 47.7891 47.6859 47.7928L34.7862 47.8125V28.2038C34.8534 27.1027 33.7229 26.2879 33.1678 25.977L33.062 25.9209C32.5396 26.178 31.3538 26.9677 31.3769 28.1016V32.1883L15.8708 32.1897L16.3824 35.8713H31.3769V47.7864L18.253 47.7417C15.8925 47.7337 13.908 45.9676 13.6261 43.6239H28.5201L28.4018 39.975H17.7379C15.2537 39.975 13.1498 38.1433 12.8079 35.6827L11.7889 28.3504L10.4602 17.3043L15.4259 22.1948C15.112 22.5194 14.6727 23.4801 15.4259 24.7263C16.1415 25.9101 17.3662 27.8901 19.7954 28.0856L27.2963 28.0849C31.4784 27.7716 31.3657 22.9708 28.8063 20.8059L33.0392 11.7936L37.273 20.8059Z" fill="#FF4F67"/>
</g>
<path d="M76.0771 41.2303H69.9943V42.7693H75.5115V44.0381H69.9943V45.6646H76.0771V46.9334H68.4349V39.9631H76.0771V41.2303Z" fill="white"/>
<path d="M83.6287 42.224H83.6771L86.9037 39.9631H88.2099V46.9334H86.6506V41.9115L84.4365 43.3943V46.9334H82.8771V43.3943L80.6552 41.9115V46.9334H79.0943V39.9631H80.4021L83.6287 42.224Z" fill="white"/>
<path fill-rule="evenodd" clip-rule="evenodd" d="M97.3662 39.9631C98.0873 39.9632 98.6464 40.1445 99.0427 40.5084C99.4456 40.8723 99.6474 41.4254 99.6474 42.1662C99.6473 42.9066 99.4453 43.4586 99.0427 43.8225C98.6464 44.1863 98.0873 44.3692 97.3662 44.3693H93.0865V46.9334H91.5256V39.9631H97.3662ZM93.0865 43.0912L97.1802 43.1021C97.4662 43.1021 97.6839 43.0295 97.8334 42.8865C97.9892 42.7436 98.0677 42.5038 98.0677 42.1662C98.0677 41.8218 97.9893 41.5808 97.8334 41.4443C97.6839 41.3014 97.4662 41.2303 97.1802 41.2303H93.0865V43.0912Z" fill="white"/>
<path d="M104.127 46.9334H102.568V39.9631H104.127V46.9334Z" fill="white"/>
<path fill-rule="evenodd" clip-rule="evenodd" d="M113.279 39.9631C114 39.9631 114.56 40.1444 114.957 40.5084C115.359 40.8723 115.56 41.4256 115.56 42.1662C115.56 42.7962 115.415 43.2901 115.122 43.6475C114.83 44.0049 114.413 44.2283 113.874 44.3193L115.482 46.9334H113.708L112.216 44.3693H109.001V46.9334H107.44V39.9631H113.279ZM109.001 43.0912L113.094 43.1021C113.38 43.1021 113.598 43.0295 113.747 42.8865C113.903 42.7436 113.982 42.5036 113.982 42.1662C113.982 41.8218 113.903 41.5808 113.747 41.4443C113.598 41.3014 113.38 41.2303 113.094 41.2303H109.001V43.0912Z" fill="white"/>
<path d="M126.324 41.2303H120.241V42.7693H125.758V44.0381H120.241V45.6646H126.324V46.9334H118.682V39.9631H126.324V41.2303Z" fill="white"/>
<path d="M83.1068 25.2381L72.9756 25.2193C72.4427 25.2193 72.0277 25.3434 71.7302 25.5912C71.433 25.8266 71.2835 26.2103 71.2834 26.7428C71.2834 27.2756 71.4328 27.6668 71.7302 27.9146C72.0277 28.1501 72.4427 28.2678 72.9756 28.2678H79.6302C81.0055 28.2678 82.0712 28.6084 82.8271 29.2896C83.5955 29.9588 83.9802 30.9574 83.9802 32.2834C83.9802 33.5968 83.5954 34.5941 82.8271 35.2756C82.0712 35.957 81.0057 36.2975 79.6302 36.2975H68.6256V33.8818L79.3146 33.9006C79.8597 33.9005 80.2749 33.7765 80.5599 33.5287C80.8573 33.2685 81.0067 32.8532 81.0068 32.2834C81.0068 31.7136 80.8571 31.3047 80.5599 31.0568C80.2749 30.7966 79.8598 30.6662 79.3146 30.6662H72.6599C71.2845 30.6662 70.2126 30.337 69.4443 29.6803C68.6884 29.0111 68.3099 28.0316 68.3099 26.7428C68.3101 25.4543 68.6885 24.4823 69.4443 23.8256C70.2126 23.1564 71.2844 22.8209 72.6599 22.8209H83.1068V25.2381Z" fill="white"/>
<path fill-rule="evenodd" clip-rule="evenodd" d="M97.5381 22.9146C98.9134 22.9147 99.9791 23.2614 100.735 23.9553C101.503 24.6491 101.888 25.7023 101.888 27.1146C101.888 28.5274 101.503 29.5816 100.735 30.2756C99.9791 30.9695 98.9134 31.3161 97.5381 31.3162H89.3771V36.2053H86.4021V22.9146H97.5381ZM89.3771 28.8818L97.1849 28.9006C97.7299 28.9005 98.1453 28.7637 98.4302 28.4912C98.7276 28.2186 98.8756 27.759 98.8756 27.1146C98.8755 26.4583 98.7274 25.9998 98.4302 25.7396C98.1453 25.4671 97.7299 25.3304 97.1849 25.3303H89.3771V28.8818Z" fill="white"/>
<path d="M107.271 36.2053H104.297V22.9146H107.271V36.2053Z" fill="white"/>
<path d="M122.844 32.4693V22.9146H125.819V36.2053H122.808L113.402 26.6318V36.2053H110.427V22.9146H113.44L122.844 32.4693Z" fill="white"/>
<defs>
<filter id="filter0_d_40_38" x="-1.14441e-05" y="4.76837e-07" width="65.9688" height="56.9394" filterUnits="userSpaceOnUse" color-interpolation-filters="sRGB">
<feFlood flood-opacity="0" result="BackgroundImageFix"/>
<feColorMatrix in="SourceAlpha" type="matrix" values="0 0 0 0 0 0 0 0 0 0 0 0 0 0 0 0 0 0 127 0" result="hardAlpha"/>
<feOffset dy="-1.33333"/>
<feGaussianBlur stdDeviation="5.23011"/>
<feComposite in2="hardAlpha" operator="out"/>
<feColorMatrix type="matrix" values="0 0 0 0 1 0 0 0 0 0 0 0 0 0 0.0156863 0 0 0 0.58 0"/>
<feBlend mode="normal" in2="BackgroundImageFix" result="effect1_dropShadow_40_38"/>
<feBlend mode="normal" in="SourceGraphic" in2="effect1_dropShadow_40_38" result="shape"/>
</filter>
</defs>
</svg>
