<svg width="48" height="48" viewBox="0 0 48 48" fill="none" xmlns="http://www.w3.org/2000/svg">
<g clip-path="url(#clip0_153_2387)">
<path d="M15.131 32.1346V19.1188H12.1223V15.7828H19.283V32.1346H15.131Z" fill="#59607A"/>
<path d="M34.891 20.0065C34.8898 20.704 34.6979 21.3877 34.3361 21.984C33.9744 22.5802 33.4565 23.0661 32.8385 23.3892C33.6841 23.7032 34.415 24.2654 34.9353 25.0022C35.4556 25.739 35.7409 26.616 35.7537 27.5179C35.7537 30.4565 33.1413 32.3232 29.0605 32.3232C24.9797 32.3232 22.3672 30.4799 22.3672 27.588C22.3935 26.655 22.7049 25.7525 23.2595 25.0019C23.8141 24.2512 24.5854 23.6884 25.4695 23.3892C24.8148 23.0607 24.2597 22.5631 23.8619 21.948C23.464 21.3328 23.2377 20.6226 23.2065 19.8908C23.2065 17.2782 25.4929 15.6219 29.0381 15.6219C32.6281 15.6208 34.891 17.3239 34.891 20.0065ZM26.2854 27.1683C26.2854 28.5495 27.2649 29.3144 29.0615 29.3144C30.8581 29.3144 31.861 28.5707 31.861 27.1683C31.861 25.8159 30.8581 25.0435 29.0615 25.0435C27.2649 25.0435 26.2833 25.8148 26.2833 27.1672L26.2854 27.1683ZM26.7104 20.2403C26.7104 21.4089 27.5497 22.0602 29.0657 22.0602C30.5818 22.0602 31.4212 21.4068 31.4212 20.2403C31.4212 19.028 30.5818 18.3512 29.0657 18.3512C27.5497 18.3512 26.704 19.027 26.704 20.2424L26.7104 20.2403Z" fill="#59607A"/>
<path d="M42.6615 17.6299C44.089 21.851 44.047 26.4309 42.5423 30.6251C41.0376 34.8194 38.1586 38.3814 34.3733 40.7325C30.5879 43.0834 26.1188 44.0851 21.6921 43.5748C17.2654 43.0644 13.1415 41.0719 9.99048 37.9212C6.83949 34.7705 4.84666 30.6467 4.3359 26.2201C3.82514 21.7934 4.82646 17.3242 7.17714 13.5386C9.52776 9.75312 13.0896 6.87383 17.2838 5.36875C21.4778 3.86367 26.0578 3.82127 30.279 5.24842V0.85C25.1822 -0.545164 19.7672 -0.215896 14.877 1.78654C9.98696 3.78897 5.89614 7.35218 3.24169 11.9214C0.587234 16.4905 -0.481895 21.8091 0.200774 27.0491C0.88344 32.289 3.27959 37.1562 7.01612 40.8927C10.7526 44.6293 15.6198 47.0254 20.8598 47.7081C26.0998 48.3908 31.4184 47.3217 35.9875 44.6672C40.5567 42.0127 44.1199 37.9219 46.1223 33.0318C48.1248 28.1417 48.454 22.7266 47.0589 17.6299H42.6615Z" fill="#59607A"/>
<path d="M41.4642 6.43002V1.83398H38.159V6.43002H33.5906V9.73525H38.159V14.3312H41.4642V9.73525H46.0602V6.43002H41.4642Z" fill="#59607A"/>
</g>
<defs>
<clipPath id="clip0_153_2387">
<rect width="48" height="48" fill="white"/>
</clipPath>
</defs>
</svg>
