<svg width="113" height="35" viewBox="0 0 113 35" fill="none" xmlns="http://www.w3.org/2000/svg">
<path d="M2.41149 11.5567H35.2893V7.18128L18.8494 0L2.41149 7.18028V11.5567ZM4.37139 12.7188H11.4052V14.5563H10.2892V27.559H11.4052V29.3313H4.37039V27.559H5.61979L5.57563 14.5362H4.32724L4.37139 12.7188ZM15.339 12.7188H22.3758V14.5563H21.2579V27.559H22.3758V29.3313H15.339V27.559H16.5884L16.5432 14.5362H15.2949L15.339 12.7188ZM26.2986 12.7188H33.3334V14.5563H32.2164V27.559H33.3324V29.3313H26.2986V27.559H27.548L27.5028 14.5362H26.2544L26.2986 12.7188ZM35.2893 30.6439H2.41149V32.1331H35.2893V30.6439ZM37.7007 33.4478H0V34.937H37.7007V33.4478ZM44.7445 10.9967H42.3702L42.3581 9.68911H44.3512C44.7024 9.68911 44.9904 9.64496 45.2142 9.55564C45.439 9.46232 45.6056 9.32885 45.716 9.15624C45.8304 8.97761 45.8866 8.76185 45.8866 8.50796C45.8866 8.22095 45.8324 7.98813 45.722 7.8105C45.6068 7.62524 45.4286 7.48772 45.2202 7.42314C44.9964 7.34285 44.7064 7.30271 44.3512 7.30271H43.0305V15.053H41.1258V5.81046H44.3512C44.8881 5.81046 45.3687 5.86064 45.7922 5.963C46.1799 6.04764 46.548 6.20495 46.8771 6.42663C47.1731 6.63336 47.3999 6.89628 47.5564 7.2134C47.713 7.5265 47.7913 7.89881 47.7913 8.33033C47.7913 8.71167 47.705 9.06291 47.5304 9.38404C47.3618 9.70517 47.0928 9.9681 46.7245 10.1718C46.3612 10.3745 45.8846 10.4869 45.2965 10.508L44.7445 10.9967ZM44.6623 15.053H41.8504L42.593 13.5678H44.6623C44.9964 13.5678 45.2694 13.5146 45.4811 13.4092C45.6919 13.2988 45.8494 13.1513 45.9508 12.9646C46.0522 12.778 46.1033 12.5642 46.1033 12.3234C46.1033 12.0524 46.0562 11.8176 45.9628 11.6189C45.8755 11.4218 45.7232 11.2607 45.5313 11.1623C45.3326 11.0519 45.0697 10.9967 44.7445 10.9967H42.9101L42.9231 9.68911H45.2082L45.6457 10.2029C46.2087 10.1949 46.6613 10.2942 47.0045 10.502C47.3517 10.7047 47.6036 10.9696 47.7602 11.2948C47.9207 11.6209 48.001 11.9701 48.001 12.3425C48.001 12.9345 47.8716 13.4343 47.6136 13.8407C47.3557 14.2421 46.9774 14.5452 46.4776 14.7479C45.9829 14.9516 45.3778 15.053 44.6623 15.053ZM53.1873 7.39102L50.6734 15.053H48.6483L52.0834 5.81046H53.3719L53.1873 7.39102ZM55.2746 15.053L52.7558 7.39102L52.552 5.81046H53.8536L57.3068 15.053H55.2746ZM55.1612 11.6129V13.1041H50.28V11.6129H55.1612ZM65.6863 5.81046V15.053H63.7816L60.0685 8.85719V15.053H58.1638V5.81046H60.0685L63.7876 12.0123V5.81046H65.6863ZM69.2468 5.81046V15.053H67.3431V5.81046H69.2468ZM74.7823 5.81046L71.1194 10.3745L69.006 12.6475L68.6628 10.8442L70.0918 8.8893L72.4451 5.81046H74.7823ZM72.6177 15.053L69.8951 10.781L71.3041 9.5998L74.8716 15.053H72.6177ZM45.2594 23.8741V33.1166H43.3627V23.8741H45.2594ZM48.1034 23.8741V25.3663H40.5628V23.8741H48.1034ZM49.1892 23.8741H52.6363C53.3428 23.8741 53.95 23.9804 54.4577 24.1912C54.9695 24.4029 55.3629 24.716 55.6379 25.1315C55.9139 25.5459 56.0514 26.0557 56.0514 26.6609C56.0514 27.1556 55.9661 27.5811 55.7975 27.9364C55.6319 28.2876 55.3971 28.5816 55.092 28.8195C54.7919 29.0523 54.4387 29.2379 54.0322 29.3774L53.4301 29.6956H50.4336L50.4205 28.2103H52.6484C52.9826 28.2103 53.2605 28.1501 53.4803 28.0317C53.6921 27.9214 53.8648 27.7487 53.975 27.537C54.0895 27.3262 54.1467 27.0793 54.1467 26.8004C54.1467 26.5043 54.0915 26.2484 53.9821 26.0327C53.8729 25.8174 53.6968 25.6434 53.4803 25.5369C53.2555 25.4235 52.9745 25.3663 52.6363 25.3663H51.0929V33.1166H49.1892V23.8741ZM54.3554 33.1166L52.248 28.9971L54.2601 28.9841L56.3926 33.0283V33.1166H54.3554ZM61.2747 25.4546L58.7599 33.1166H56.7348L60.1689 23.8741H61.4574L61.2747 25.4546ZM63.3621 33.1166L60.8432 25.4546L60.6395 23.8741H61.9411L65.3933 33.1166H63.3621ZM63.2487 29.6765V31.1677H58.3655V29.6765H63.2487ZM73.7728 23.8741V33.1166H71.869L68.156 26.9208V33.1166H66.2513V23.8741H68.155L71.8751 30.0759V23.8741H73.7728ZM80.2415 30.6981C80.2415 30.5325 80.2164 30.385 80.1653 30.2535C80.1119 30.1085 80.0195 29.9811 79.8983 29.8852C79.7306 29.7484 79.5449 29.6353 79.3464 29.549C79.0471 29.4154 78.7398 29.3008 78.4261 29.2058C78.02 29.0756 77.6213 28.9232 77.2319 28.7492C76.8801 28.5921 76.548 28.394 76.2425 28.1591C75.9684 27.9416 75.7399 27.6722 75.5701 27.3664C75.4037 27.0423 75.321 26.6818 75.3292 26.3177C75.3292 25.9333 75.4125 25.5841 75.5821 25.271C75.7517 24.9539 75.9886 24.6829 76.2936 24.4581C76.6189 24.2194 76.9842 24.041 77.3724 23.9313C77.8206 23.8047 78.2846 23.7428 78.7503 23.7476C79.4307 23.7476 80.0248 23.87 80.5336 24.1149C81.0414 24.3608 81.4347 24.697 81.7147 25.1245C81.9977 25.552 82.1392 26.0407 82.1392 26.5906H80.2476C80.2476 26.3197 80.1904 26.0828 80.077 25.8801C79.9623 25.6683 79.7844 25.4975 79.5682 25.3914C79.3444 25.273 79.0604 25.2138 78.7182 25.2138C78.387 25.2138 78.113 25.264 77.8933 25.3663C77.6725 25.4637 77.5079 25.5971 77.3975 25.7657C77.2875 25.9311 77.2301 26.126 77.2329 26.3247C77.2329 26.4812 77.2711 26.6227 77.3473 26.7502C77.4276 26.8766 77.546 26.995 77.7026 27.1054C77.8591 27.2158 78.0518 27.3192 78.2796 27.4165C78.5084 27.5139 78.7734 27.6092 79.0734 27.7015C79.5772 27.8541 80.0198 28.0257 80.4001 28.2163C80.7854 28.407 81.1066 28.6208 81.3655 28.8576C81.6234 29.0944 81.8171 29.3634 81.9496 29.6634C82.08 29.9645 82.1462 30.3047 82.1462 30.685C82.1462 31.0875 82.068 31.4477 81.9114 31.7648C81.753 32.0841 81.52 32.3606 81.232 32.5707C80.936 32.7915 80.5817 32.958 80.1713 33.0724C79.7608 33.1869 79.3022 33.243 78.7944 33.243C78.3368 33.243 77.8862 33.1848 77.4427 33.0654C77.0109 32.9487 76.6011 32.7623 76.2294 32.5135C75.8729 32.2714 75.5775 31.9499 75.3664 31.5742C75.1506 31.1928 75.0422 30.7422 75.0422 30.2224H76.953C76.953 30.5094 76.9981 30.7533 77.0864 30.952C77.1757 31.1507 77.3002 31.3112 77.4607 31.4337C77.6263 31.5571 77.821 31.6464 78.0448 31.7006C78.2736 31.7558 78.5235 31.7839 78.7944 31.7839C79.1246 31.7839 79.3956 31.7367 79.6073 31.6434C79.8023 31.5674 79.9686 31.4323 80.083 31.2571C80.1883 31.0915 80.2415 30.9058 80.2415 30.6981ZM85.3455 23.8741V33.1166H83.4408V23.8741H85.3455ZM89.0265 27.823V29.3082H84.8247V27.823H89.0265ZM89.471 23.8741V25.3663H84.8247V23.8741H89.471ZM96.7767 31.6314V33.1166H91.8584V31.6314H96.7767ZM92.4796 23.8741V33.1166H90.5759V23.8741H92.4796ZM96.1365 27.6383V29.0854H91.8584V27.6383H96.1365ZM96.7707 23.8751V25.3663H91.8584V23.8741L96.7707 23.8751ZM97.8887 23.8751H101.335C102.042 23.8751 102.649 23.9804 103.157 24.1912C103.669 24.4029 104.062 24.716 104.337 25.1315C104.613 25.5459 104.751 26.0557 104.751 26.6609C104.751 27.1556 104.666 27.5811 104.497 27.9364C104.331 28.2876 104.097 28.5816 103.791 28.8195C103.471 29.0626 103.113 29.2511 102.732 29.3774L102.129 29.6956H99.133L99.12 28.2103H101.348C101.682 28.2103 101.959 28.1501 102.18 28.0317C102.4 27.9133 102.565 27.7487 102.675 27.537C102.789 27.3262 102.846 27.0793 102.846 26.8004C102.846 26.5043 102.791 26.2484 102.681 26.0327C102.572 25.8175 102.396 25.6435 102.18 25.5369C101.955 25.4235 101.674 25.3663 101.335 25.3663H99.7924V33.1166H97.8887V23.8751ZM103.056 33.1166L100.948 28.9971L102.961 28.9841L105.093 33.0283V33.1166H103.056ZM111.028 30.6981C111.028 30.5325 111.003 30.385 110.953 30.2535C110.899 30.1086 110.807 29.9812 110.686 29.8852C110.518 29.7485 110.332 29.6354 110.134 29.549C109.834 29.4155 109.527 29.3008 109.213 29.2058C108.807 29.0754 108.408 28.923 108.019 28.7492C107.667 28.5921 107.335 28.394 107.029 28.1591C106.755 27.9417 106.526 27.6723 106.356 27.3664C106.196 27.0653 106.116 26.7161 106.116 26.3177C106.116 25.9333 106.2 25.5841 106.37 25.271C106.542 24.9495 106.785 24.6716 107.08 24.4581C107.405 24.2195 107.771 24.0411 108.159 23.9313C108.607 23.8047 109.071 23.7429 109.537 23.7476C110.218 23.7476 110.812 23.87 111.32 24.1149C111.828 24.3608 112.222 24.697 112.501 25.1245C112.785 25.552 112.927 26.0407 112.927 26.5906H111.035C111.035 26.3197 110.978 26.0828 110.863 25.8801C110.749 25.6685 110.571 25.4977 110.356 25.3914C110.131 25.273 109.848 25.2138 109.505 25.2138C109.174 25.2138 108.899 25.264 108.68 25.3663C108.46 25.4637 108.294 25.5971 108.185 25.7657C108.074 25.931 108.017 26.1259 108.019 26.3247C108.019 26.4812 108.057 26.6227 108.134 26.7502C108.214 26.8766 108.332 26.995 108.489 27.1054C108.646 27.2158 108.838 27.3192 109.067 27.4165C109.296 27.5139 109.56 27.6092 109.861 27.7015C110.364 27.8541 110.806 28.0257 111.187 28.2163C111.572 28.407 111.894 28.6208 112.152 28.8576C112.41 29.0944 112.604 29.3634 112.736 29.6634C112.867 29.9645 112.933 30.3047 112.933 30.685C112.933 31.0875 112.854 31.4477 112.698 31.7648C112.539 32.0841 112.306 32.3605 112.018 32.5707C111.699 32.802 111.34 32.9721 110.959 33.0724C110.548 33.1869 110.089 33.243 109.581 33.243C109.124 33.243 108.674 33.1848 108.229 33.0654C107.798 32.9488 107.388 32.7624 107.017 32.5135C106.66 32.2716 106.365 31.95 106.154 31.5742C105.937 31.1928 105.83 30.7422 105.83 30.2224H107.74C107.74 30.5094 107.785 30.7533 107.874 30.952C107.962 31.1507 108.088 31.3112 108.248 31.4337C108.413 31.5571 108.607 31.6464 108.832 31.7006C109.061 31.7558 109.31 31.7839 109.581 31.7839C109.911 31.7839 110.182 31.7367 110.394 31.6434C110.589 31.5676 110.755 31.4324 110.869 31.2571C110.976 31.0915 111.028 30.9058 111.028 30.6981Z" fill="#CACEE0"/>
</svg>
