<svg width="105" height="40" viewBox="0 0 105 40" fill="none" xmlns="http://www.w3.org/2000/svg">
<path fill-rule="evenodd" clip-rule="evenodd" d="M10.5039 30.2911C16.0642 31.6852 21.6958 28.283 23.0813 22.6922C24.4676 17.1015 21.0844 11.4373 15.525 10.0431C9.96554 8.64895 4.33572 12.0521 2.94938 17.6437C1.56303 23.2345 4.9462 28.8969 10.5039 30.2911ZM15.3086 16.047C16.7468 16.545 17.798 17.2916 17.5913 18.6805C17.4418 19.6978 16.8814 20.1888 16.1372 20.3613C17.1594 20.8965 17.6793 21.7165 17.184 23.139C16.5691 24.9046 15.1089 25.0541 13.1675 24.6844L12.696 26.5836L11.5577 26.2979L12.0231 24.4243C11.7196 24.3486 11.417 24.2695 11.1153 24.1872L10.649 26.0697L9.51164 25.7848L9.98225 23.882L9.66118 23.798L9.17121 23.6715L7.68898 23.3L8.2546 21.989C8.2546 21.989 9.0938 22.2136 9.08148 22.1968C9.40432 22.2765 9.5477 22.0659 9.604 21.9253L10.3482 18.9229L10.43 18.9432L10.4687 18.9521C10.4303 18.9371 10.3909 18.9247 10.3508 18.9149L10.8813 16.7715C10.8953 16.5282 10.8118 16.2213 10.3508 16.1054C10.3684 16.0939 9.52395 15.8993 9.52395 15.8993L9.82655 14.6758L11.3976 15.0704L11.3959 15.0757C11.6316 15.135 11.8753 15.1907 12.1233 15.2482L12.5896 13.3675L13.7278 13.6523L13.2704 15.4968C13.5757 15.5666 13.8835 15.6374 14.1826 15.7126L14.6365 13.8815L15.7757 14.1663L15.3086 16.047ZM11.7073 22.8674C12.6362 23.1151 14.6673 23.6538 14.9902 22.349C15.3209 21.015 13.3514 20.5709 12.3908 20.3542C12.2834 20.3294 12.1884 20.3082 12.111 20.2887L11.4856 22.8099L11.7073 22.8674ZM12.5834 19.1838C13.3575 19.3926 15.0482 19.8455 15.342 18.6601C15.6429 17.4473 14.0005 17.0811 13.1983 16.9033C13.1086 16.883 13.0285 16.8653 12.9634 16.8493L12.3969 19.1352L12.5834 19.1838Z" fill="#CACEE0"/>
<path d="M33.0506 16.0456C33.8916 16.0456 34.619 16.196 35.2295 16.495C35.8444 16.7958 36.3502 17.2 36.7565 17.7096C37.1688 18.2431 37.472 18.8534 37.6485 19.5053C37.8403 20.1935 37.9361 20.933 37.9361 21.7247C37.9361 22.9402 37.7145 24.0893 37.2676 25.172C36.8427 26.2223 36.2229 27.1818 35.4415 27.9992C34.6623 28.805 33.7342 29.4501 32.7093 29.8984C31.6608 30.3655 30.5208 30.599 29.2972 30.599C29.1389 30.599 28.8609 30.5946 28.4677 30.5866C28.0745 30.5778 27.6232 30.538 27.1174 30.469C26.6073 30.3973 26.0698 30.2921 25.5007 30.1505C24.9431 30.0149 24.4014 29.8201 23.8848 29.5693L28.4299 10.3674L32.5 9.73315L30.8726 16.5472C31.211 16.3932 31.5621 16.2695 31.922 16.1774C32.273 16.0899 32.6495 16.0447 33.0515 16.0447L33.0506 16.0456ZM29.6367 27.3517C30.249 27.3517 30.8269 27.1995 31.3696 26.9023C31.9153 26.6022 32.3943 26.1931 32.7771 25.7001C33.1703 25.1959 33.4808 24.6298 33.7086 23.9955C33.9361 23.36 34.0516 22.6894 34.0499 22.014C34.0499 21.1683 33.9091 20.5093 33.6294 20.0325C33.3497 19.5584 32.8325 19.3195 32.0804 19.3195C31.8341 19.3195 31.5156 19.3664 31.1216 19.4513C30.7275 19.5407 30.3739 19.7273 30.0572 20.0077L28.3243 27.2437C28.4299 27.2614 28.5214 27.2791 28.6005 27.2968C28.7862 27.3338 28.9751 27.3522 29.1644 27.3517H29.6367ZM42.1567 30.231H38.2686L41.5523 16.3393H45.4667L42.1567 30.231ZM44.0479 14.6471C43.5176 14.6513 43.0007 14.4797 42.5771 14.1588C42.1373 13.835 41.9192 13.337 41.9192 12.6656C41.9192 12.2967 41.9939 11.9508 42.1417 11.6235C42.4301 10.9867 42.9459 10.4821 43.587 10.21C43.9124 10.0693 44.2572 9.99942 44.6258 9.99942C45.1685 9.99942 45.6576 10.1622 46.0948 10.4868C46.532 10.8141 46.7519 11.3122 46.7519 11.98C46.7519 12.3507 46.6771 12.6983 46.5285 13.0239C46.3867 13.3407 46.1864 13.6277 45.9382 13.8695C45.69 14.1086 45.401 14.3007 45.085 14.4366C44.7595 14.579 44.4147 14.6471 44.0479 14.6471ZM48.8727 12.8788L52.9446 12.2445L51.9444 16.3393H56.3048L55.5175 19.5601H51.1835L50.0286 24.4201C49.923 24.8253 49.8614 25.203 49.8456 25.555C49.8262 25.908 49.8702 26.2114 49.9758 26.4662C50.0796 26.7227 50.2678 26.92 50.5405 27.0589C50.8114 27.2013 51.2002 27.2729 51.7087 27.2729C52.1283 27.2729 52.5364 27.2322 52.9314 27.1526C53.3365 27.0716 53.7354 26.9617 54.125 26.8236L54.4153 29.8356C53.8893 30.0293 53.3211 30.1956 52.7079 30.3363C52.094 30.4778 51.3674 30.5468 50.5264 30.5468C49.3196 30.5468 48.3836 30.3664 47.716 30.0072C47.0501 29.6454 46.5795 29.1518 46.2971 28.5264C46.0192 27.9028 45.8951 27.1845 45.9303 26.3751C45.9655 25.563 46.0878 24.7111 46.2971 23.8124L48.8727 12.8788ZM56.1333 24.6846C56.1333 23.4877 56.3259 22.359 56.7112 21.3028C57.0771 20.2777 57.6396 19.3349 58.3667 18.5278C59.0985 17.7264 59.989 17.0879 60.981 16.6534C62.0031 16.1969 63.1466 15.9669 64.4072 15.9669C65.1962 15.9669 65.9008 16.0412 66.5209 16.1916C67.1051 16.3292 67.6732 16.5282 68.216 16.7852L66.8754 19.8512C66.5185 19.7068 66.1551 19.579 65.7864 19.4681C65.41 19.3514 64.9508 19.2956 64.4072 19.2956C63.1097 19.2956 62.0849 19.745 61.3205 20.642C60.5605 21.539 60.177 22.7473 60.177 24.2618C60.177 25.1596 60.3705 25.885 60.7567 26.4405C61.1411 26.996 61.8518 27.272 62.8836 27.272C63.3781 27.2734 63.8713 27.2206 64.3544 27.1146C64.786 27.0214 65.2082 26.8887 65.6158 26.7183L65.9061 29.8613C65.374 30.0665 64.8299 30.239 64.277 30.3779C63.6815 30.5238 62.9716 30.5999 62.1483 30.5999C61.0628 30.5999 60.1435 30.4407 59.3915 30.1258C58.6394 29.8064 58.0175 29.3818 57.5275 28.844C57.0346 28.3036 56.6706 27.6574 56.4631 26.9545C56.2418 26.2185 56.1307 25.4535 56.1333 24.6846ZM73.4015 30.5999C72.4743 30.5999 71.6686 30.4584 70.9851 30.1762C70.3034 29.8949 69.7387 29.5003 69.2918 28.9882C68.8357 28.4607 68.4915 27.8451 68.2802 27.1792C68.0515 26.4839 67.9407 25.7143 67.9407 24.8704C67.9407 23.8124 68.1105 22.7544 68.4509 21.6991C68.7913 20.642 69.2953 19.6911 69.9639 18.8471C70.6315 17.9985 71.4611 17.2926 72.404 16.771C73.3645 16.2358 74.4703 15.966 75.7114 15.966C76.6227 15.966 77.4241 16.1093 78.1172 16.3906C78.8069 16.671 79.3751 17.0691 79.8237 17.5786C80.2788 18.1069 80.6224 18.7226 80.8336 19.3885C81.0623 20.0829 81.1749 20.8543 81.1749 21.6991C81.1749 22.7535 81.0077 23.8115 80.677 24.8704C80.3577 25.9005 79.8597 26.8657 79.2062 27.7214C78.549 28.5748 77.7218 29.2807 76.7775 29.794C75.8064 30.331 74.6805 30.5999 73.4015 30.5999ZM75.3455 19.2956C74.7685 19.2956 74.2591 19.4637 73.8237 19.7963C73.3767 20.1422 73.0019 20.5732 72.7206 21.0648C72.4172 21.5883 72.1908 22.1532 72.0486 22.742C71.9056 23.3077 71.8312 23.8887 71.8269 24.4723C71.8269 25.3534 71.9686 26.0398 72.2465 26.5334C72.528 27.0252 73.0347 27.2729 73.7701 27.2729C74.3489 27.2729 74.8555 27.1057 75.2945 26.7696C75.7406 26.4238 76.1151 25.9934 76.3967 25.5029C76.6997 24.9793 76.9257 24.4144 77.0678 23.8257C77.2103 23.2599 77.285 22.679 77.2904 22.0954C77.2904 21.2161 77.1496 20.5279 76.8682 20.0343C76.5884 19.5433 76.0809 19.2956 75.3455 19.2956ZM85.4112 30.231H81.5206L84.8034 16.3393H88.7196L85.4112 30.231ZM87.2998 14.6471C86.7701 14.6513 86.2537 14.4797 85.8308 14.1588C85.3919 13.835 85.172 13.337 85.172 12.6656C85.172 12.2967 85.2476 11.9508 85.3963 11.6235C85.5441 11.298 85.742 11.0167 85.9874 10.7779C86.2319 10.5417 86.5187 10.3524 86.8406 10.21C87.1679 10.0688 87.5207 9.99709 87.8769 9.99942C88.4074 9.99458 88.9247 10.1659 89.3485 10.4868C89.7866 10.8141 90.0073 11.3122 90.0073 11.98C90.0073 12.3507 89.9291 12.6983 89.7813 13.0239C89.6401 13.3409 89.4401 13.6279 89.1919 13.8695C88.9438 14.1083 88.6551 14.3003 88.3396 14.4366C88.0113 14.5787 87.6572 14.6504 87.2998 14.6471ZM91.5212 16.9709C91.8159 16.8842 92.1458 16.7798 92.5038 16.6657C93.3862 16.3952 94.2922 16.2098 95.2095 16.112C95.833 16.0458 96.4597 16.0148 97.0867 16.0191C99.1371 16.0191 100.55 16.6189 101.33 17.8166C102.11 19.0135 102.244 20.6517 101.739 22.7288L99.9508 30.2301H96.0373L97.7711 22.8862C97.8766 22.428 97.9593 21.9848 98.0209 21.5514C98.0833 21.1223 98.0798 20.7446 98.0068 20.4164C97.9431 20.1031 97.7715 19.8224 97.5221 19.6238C97.2653 19.4213 96.8791 19.3204 96.3531 19.3204C95.8327 19.3223 95.3139 19.3759 94.804 19.4805L92.2557 30.2292H88.3413L91.5212 16.9709Z" fill="#CACEE0"/>
</svg>
