<svg width="142" height="42" viewBox="0 0 142 42" fill="none" xmlns="http://www.w3.org/2000/svg">
<path d="M20.9318 30.2805C26.7638 30.2805 31.4915 25.5528 31.4915 19.7208C31.4915 13.8889 26.7638 9.16113 20.9318 9.16113C15.0998 9.16113 10.3721 13.8889 10.3721 19.7208C10.3721 25.5528 15.0998 30.2805 20.9318 30.2805Z" fill="#EC6B1C"/>
<path d="M24.9148 26.2615C26.2905 26.2615 27.4057 25.1462 27.4057 23.7705C27.4057 22.3948 26.2905 21.2795 24.9148 21.2795C23.5391 21.2795 22.4238 22.3948 22.4238 23.7705C22.4238 25.1462 23.5391 26.2615 24.9148 26.2615Z" fill="white"/>
<path d="M42.6928 19.0198C42.5969 19.1189 42.4418 19.1189 42.3446 19.0198C42.026 18.6979 41.5456 18.4701 41.0222 18.4701C39.5168 18.4701 38.6138 19.4738 38.6138 20.938C38.6138 22.4021 39.5168 23.4058 41.0222 23.4058C41.605 23.4058 42.1051 23.036 42.3478 22.8181C42.4401 22.7356 42.5821 22.7422 42.6681 22.833L44.3203 24.5679C44.4161 24.6687 44.4161 24.8304 44.312 24.9228C43.3794 25.7548 42.0951 26.0536 41.0222 26.0536C38.0113 26.0536 35.6045 24.0463 35.6045 20.9363C35.6045 17.8264 38.0129 15.8191 41.0222 15.8191C42.0985 15.8191 43.3876 16.1212 44.3221 16.9597C44.4195 17.0472 44.4195 17.2008 44.3303 17.2948L42.6928 19.0198Z" fill="white"/>
<path d="M51.607 24.591C50.9451 25.6343 49.7402 26.0553 48.5171 26.0553C46.6913 26.0553 45.0454 25.012 45.0454 23.0443C45.0454 19.6735 49.1394 19.6124 51.6483 19.6124C51.6483 18.5494 50.7652 17.866 49.7219 17.866C48.8256 17.866 48.0631 18.2324 47.449 18.8449C47.3481 18.9439 47.1849 18.939 47.0874 18.8383L45.8923 17.6134C45.7289 17.445 45.7306 17.3261 45.808 17.2585C46.9059 16.2994 48.4442 15.8191 49.9631 15.8191C53.474 15.8191 54.4184 17.6051 54.4184 20.8555V25.5484C54.4184 25.6937 54.3011 25.8126 54.1543 25.8126H51.9787C51.7954 25.8126 51.6483 25.664 51.6483 25.4824L51.607 24.591ZM50.9055 21.5421C49.9829 21.5421 47.936 21.623 47.936 22.9469C47.936 23.67 48.6986 24.01 49.3605 24.01C50.5441 24.01 51.6483 23.3876 51.6483 22.1843V21.5421H50.9055Z" fill="white"/>
<path d="M61.7385 18.7635C61.6511 18.8509 61.5073 18.8542 61.4216 18.7651C61.0006 18.3326 60.4675 18.1081 59.8236 18.1081C59.3217 18.1081 58.7191 18.3293 58.7191 18.9103C58.7191 20.3547 63.7968 19.1316 63.7968 22.8441C63.7968 26.5998 57.8705 26.8533 55.6556 24.9074C55.5481 24.8133 55.5449 24.645 55.6407 24.5393L57.1495 22.8639C57.2252 22.778 57.3575 22.7813 57.4349 22.8671C57.9666 23.4466 58.5921 23.7684 59.4209 23.7684C60.1026 23.7684 60.7861 23.5868 60.7861 23.0669C60.7861 21.502 55.7084 22.8259 55.7084 19.1134C55.7084 15.4975 61.0982 14.9118 63.277 16.9674C63.3548 17.0417 63.3529 17.1672 63.2751 17.2431L61.7385 18.7635Z" fill="white"/>
<path d="M66.3301 11.6522C67.4266 11.4443 68.3724 12.3885 68.1637 13.4845C68.0471 14.097 67.5531 14.5905 66.9407 14.7078C65.8448 14.9174 64.899 13.9699 65.107 12.8754C65.2243 12.263 65.7176 11.7695 66.3301 11.6522ZM65.4089 16.063H67.9316C68.0471 16.063 68.1397 16.1571 68.1397 16.271V25.5811C68.1397 25.7115 68.0341 25.8172 67.9032 25.8172H65.4336C65.2657 25.8172 65.128 25.6802 65.128 25.5118V16.342C65.1299 16.1884 65.2558 16.063 65.4089 16.063Z" fill="white"/>
<path d="M70.1419 16.0631H72.38C72.5516 16.0631 72.6905 16.2017 72.6905 16.3734V17.3869H72.73C73.1314 16.6243 74.1149 15.822 75.5793 15.822C78.6298 15.822 79.191 17.8293 79.191 20.4375V25.5696C79.191 25.705 79.0805 25.8155 78.9453 25.8155H76.4819C76.3152 25.8155 76.18 25.6802 76.18 25.5135V21.04C76.18 19.9158 76.1603 18.4715 74.6149 18.4715C73.0505 18.4715 72.8091 19.6963 72.8091 20.9591V25.4573C72.8091 25.6555 72.6492 25.8155 72.451 25.8155H70.137C69.9518 25.8155 69.8018 25.6653 69.8018 25.4804V16.4031C69.8018 16.2149 69.9536 16.0631 70.1419 16.0631Z" fill="white"/>
<path d="M107 15.822C110.011 15.822 112.42 17.8293 112.42 20.9393C112.42 24.0493 110.011 26.0566 107 26.0566C103.989 26.0566 101.583 24.0493 101.583 20.9393C101.583 17.8293 103.989 15.822 107 15.822ZM107 23.4072C108.506 23.4072 109.409 22.4035 109.409 20.9393C109.409 19.4751 108.506 18.4715 107 18.4715C105.495 18.4715 104.592 19.4751 104.592 20.9393C104.592 22.4035 105.495 23.4072 107 23.4072Z" fill="#EC6B1C"/>
<path d="M86.054 15.822C89.0644 15.822 91.4728 17.8293 91.4728 20.9393C91.4728 24.0493 89.0644 26.0566 86.054 26.0566C83.043 26.0566 80.6357 24.0493 80.6357 20.9393C80.6357 17.8293 83.043 15.822 86.054 15.822ZM86.054 23.4072C87.5592 23.4072 88.4624 22.4035 88.4624 20.9393C88.4624 19.4751 87.5592 18.4715 86.054 18.4715C84.5482 18.4715 83.6455 19.4751 83.6455 20.9393C83.6455 22.4035 84.5482 23.4072 86.054 23.4072Z" fill="white"/>
<path d="M113.989 16.0631H116.257C116.429 16.0631 116.568 16.2017 116.568 16.3734V17.3869H116.607C117.008 16.6243 117.993 15.822 119.456 15.822C120.642 15.822 121.646 16.2463 122.232 17.1344C122.352 17.3176 122.614 17.3143 122.743 17.136C123.413 16.2067 124.295 15.822 125.559 15.822C128.209 15.822 129.011 17.689 129.011 20.0562V25.5052C129.011 25.6769 128.872 25.8155 128.701 25.8155H126.31C126.138 25.8155 126 25.6769 126 25.5052V20.137C126 19.2341 125.658 18.4715 124.676 18.4715C123.291 18.4715 122.85 19.4553 122.85 20.6587V25.5052C122.85 25.6769 122.712 25.8155 122.54 25.8155H120.151C119.98 25.8155 119.841 25.6769 119.841 25.5052V20.6587C119.841 19.9356 119.881 18.4715 118.496 18.4715C116.931 18.4715 116.69 19.6963 116.69 20.9591V25.5052C116.69 25.6769 116.551 25.8155 116.379 25.8155H113.991C113.819 25.8155 113.681 25.6769 113.681 25.5052V16.3734C113.679 16.2017 113.817 16.0631 113.989 16.0631Z" fill="#EC6B1C"/>
<path d="M99.815 19.0198C99.7186 19.1189 99.5637 19.1189 99.4661 19.0198C99.1476 18.6979 98.6672 18.4701 98.1443 18.4701C96.6385 18.4701 95.7359 19.4738 95.7359 20.938C95.7359 22.4021 96.6385 23.4058 98.1443 23.4058C98.7271 23.4058 99.2272 23.036 99.4698 22.8181C99.5618 22.7356 99.7038 22.7422 99.7896 22.833L101.442 24.5679C101.538 24.6687 101.538 24.8304 101.434 24.9228C100.502 25.7548 99.2173 26.0536 98.1443 26.0536C95.1333 26.0536 92.7261 24.0463 92.7261 20.9363C92.7261 17.8264 95.1351 15.8191 98.1443 15.8191C99.2204 15.8191 100.51 16.1212 101.444 16.9597C101.541 17.0472 101.541 17.2008 101.452 17.2948L99.815 19.0198Z" fill="#EC6B1C"/>
<path d="M28.4341 15.4702C25.6537 10.6543 18.8314 9.75614 14.8993 13.6883C10.9671 17.6205 11.8652 24.4428 16.6812 27.2232L18.5114 24.0531C15.7444 22.4556 15.2284 18.5359 17.4876 16.2767C19.749 14.0153 23.6897 14.5735 25.2641 17.3005L28.4341 15.4702Z" fill="url(#paint0_linear_153_2373)"/>
<defs>
<linearGradient id="paint0_linear_153_2373" x1="32.7416" y1="-6.03926" x2="17.8285" y2="25.6514" gradientUnits="userSpaceOnUse">
<stop offset="0.487031" stop-color="white"/>
<stop offset="1" stop-color="white" stop-opacity="0"/>
</linearGradient>
</defs>
</svg>
