<svg width="126" height="38" viewBox="0 0 126 38" fill="none" xmlns="http://www.w3.org/2000/svg">
<g clip-path="url(#clip0_153_2338)">
<mask id="mask0_153_2338" style="mask-type:luminance" maskUnits="userSpaceOnUse" x="0" y="0" width="126" height="38">
<path d="M126 0H0V37.2522H126V0Z" fill="white"/>
</mask>
<g mask="url(#mask0_153_2338)">
<path fill-rule="evenodd" clip-rule="evenodd" d="M39.5676 16.0628H40.007C40.0933 16.0628 40.1325 16.0158 40.1404 15.9608C40.1404 15.9451 40.1404 15.9294 40.1325 15.9138L38.7515 11.7235C38.6259 11.3312 38.2728 11.2449 37.9982 11.2449C37.7157 11.2449 37.3626 11.339 37.237 11.7313L35.856 15.9138C35.8481 15.9294 35.8481 15.9451 35.8481 15.9608C35.8481 16.0157 35.9031 16.0628 35.9737 16.0628H36.4131C36.4759 16.0628 36.5308 16.0236 36.5465 15.9687L37.0252 14.4935H38.9555L39.442 15.9687C39.4577 16.0158 39.4969 16.0628 39.5676 16.0628ZM37.9982 11.7471C38.0688 11.7471 38.1159 11.7941 38.1394 11.8647L38.8064 13.9442H37.1821L37.8491 11.8647C37.8726 11.7941 37.9197 11.7471 37.9982 11.7471Z" fill="#44BE4C"/>
<path d="M33.2196 16.1099C33.8552 16.1099 34.1455 16.0785 34.4594 16.0157C34.5457 16 34.6085 15.9607 34.6085 15.8431V15.537C34.6085 15.4585 34.5693 15.4193 34.4908 15.4193H34.4594C34.1848 15.4429 33.6512 15.4821 33.2274 15.4821C32.4977 15.4821 31.9327 15.0427 31.9327 13.795V13.5439C31.9327 12.2806 32.4977 11.8569 33.2274 11.8569C33.659 11.8569 34.2083 11.9039 34.4751 11.9275H34.4986C34.5693 11.9275 34.5849 11.8961 34.5849 11.849V11.4723C34.5849 11.4096 34.5379 11.386 34.4672 11.3782L34.4168 11.3708C34.0989 11.324 33.6663 11.2605 33.2196 11.2605C32.3015 11.2605 31.25 11.7313 31.25 13.5596V13.8107C31.25 15.6155 32.3015 16.1099 33.2196 16.1099Z" fill="#44BE4C"/>
<path d="M45.8847 16.0628H45.4767C45.406 16.0628 45.3433 15.9922 45.3433 15.9137V11.4568C45.3433 11.3861 45.3982 11.3154 45.4767 11.3154H45.8847C45.9553 11.3154 46.0181 11.3783 46.0181 11.4568V15.9137C46.0181 15.9922 45.9632 16.0628 45.8847 16.0628Z" fill="#44BE4C"/>
<path d="M50.6791 16.0628H51.1421C51.2598 16.0628 51.354 15.9687 51.3618 15.8431V11.4568C51.3618 11.3861 51.3069 11.3154 51.2284 11.3154H50.8361C50.7655 11.3154 50.7027 11.3861 50.7027 11.4568V15.027C50.7027 15.0348 50.7027 15.0506 50.6949 15.0506L50.6791 15.027L48.3957 11.4645C48.3329 11.3547 48.3016 11.3154 48.0897 11.3154H47.6816C47.5561 11.3154 47.4619 11.4096 47.4619 11.5273V15.9765C47.4619 16.0471 47.5247 16.0628 47.5953 16.0628H47.9798C48.0504 16.0628 48.1132 15.9922 48.1132 15.9216V12.3591C48.1132 12.3434 48.1132 12.3355 48.1211 12.3355C48.1289 12.3355 48.1368 12.3434 48.1446 12.3591L50.4437 15.9452C50.4751 16.0158 50.5615 16.0628 50.6791 16.0628Z" fill="#44BE4C"/>
<path fill-rule="evenodd" clip-rule="evenodd" d="M54.7042 16.1177C53.535 16.1177 52.6875 15.435 52.6875 13.7793V13.6067C52.6875 11.951 53.535 11.2683 54.7042 11.2683C55.8738 11.2683 56.713 11.951 56.713 13.6067V13.7793C56.713 15.4272 55.8738 16.1177 54.7042 16.1177ZM56.0304 13.6067C56.0304 12.359 55.5204 11.8804 54.7042 11.8804C53.896 11.8804 53.3702 12.359 53.3702 13.6067V13.7793C53.3702 15.027 53.8803 15.5056 54.7042 15.5056C55.5128 15.5056 56.0304 15.027 56.0304 13.7793V13.6067Z" fill="#44BE4C"/>
<path d="M42.314 13.1674L42.9967 13.5127C43.7657 13.9443 44.0482 14.2974 44.056 14.8075C44.056 15.1056 43.9305 16.0865 42.3297 16.0865C41.8667 16.0865 41.5293 16.0394 41.2311 15.9923H41.2233C41.1056 15.9688 41.0821 15.9374 41.0821 15.8589V15.6078C41.0821 15.5372 41.137 15.4901 41.2155 15.4901H41.239C41.5529 15.5137 42.0315 15.5372 42.3297 15.5372C43.0438 15.5372 43.389 15.2939 43.389 14.8075C43.389 14.4936 43.185 14.3131 42.6044 13.9756L41.8903 13.6069C41.3332 13.2852 40.9644 12.9634 40.9644 12.4141C40.9644 11.6844 41.5607 11.2842 42.6358 11.2842C43.0516 11.2842 43.5617 11.3391 43.7892 11.3705C43.8912 11.3941 43.9148 11.449 43.9148 11.4961V11.7707C43.9148 11.8413 43.8598 11.8884 43.7814 11.8884H43.7657C43.3028 11.857 42.9182 11.8413 42.6279 11.8413C41.8981 11.8413 41.5999 12.0061 41.5999 12.422C41.5999 12.7045 41.8197 12.885 42.314 13.1674Z" fill="#44BE4C"/>
<path d="M26.0165 14.8779C27.5545 14.8779 29.273 15.1291 29.9007 15.3173C30.1911 15.4037 30.1989 15.4429 30.2146 15.6312V17.7185C30.2146 17.9382 30.1675 18.0089 29.9713 17.9775C29.5398 17.9225 28.3314 17.8597 27.4525 17.8362C25.632 17.7891 24.761 18.1344 24.761 19.6959V20.9357C24.761 22.7954 25.4594 22.8503 25.8831 22.8503C25.993 22.8503 26.8483 22.8425 27.1779 22.819C27.2407 22.819 27.2877 22.7641 27.2877 22.7013V21.5949C27.2877 21.5478 27.2485 21.5085 27.2014 21.5085H26.3461C26.1892 21.5085 26.0636 21.3908 26.0636 21.2418V19.9941C26.0636 19.845 26.1892 19.7273 26.3461 19.7273H29.9007C30.0655 19.7273 30.1989 19.8607 30.1989 20.0255V25.0083C30.1989 25.2515 30.1597 25.2672 29.9007 25.3221C29.0297 25.5105 27.2093 25.7223 25.8753 25.7223C24.0705 25.7223 21.3555 25.0004 21.3555 20.9043V19.6959C21.3555 15.5292 24.1254 14.8779 26.0165 14.8779Z" fill="white"/>
<path d="M36.6256 16.8323H38.9168C39.0502 16.8323 39.1679 16.9343 39.1757 17.0677V22.2074C39.1757 25.2363 37.0414 25.6914 35.2209 25.6914C33.3926 25.6914 31.2661 25.2284 31.2661 22.2074V17.0677C31.2661 16.9343 31.3838 16.8323 31.5093 16.8323H33.8006C33.9262 16.8323 34.036 16.9421 34.036 17.0677V22.2074C34.036 23.1411 34.601 23.3373 35.2131 23.3373C35.8251 23.3373 36.3901 23.1333 36.3901 22.2074V17.0677C36.3901 16.9343 36.5 16.8323 36.6256 16.8323Z" fill="white"/>
<path d="M56.3684 16.8323H54.0767C53.9512 16.8323 53.8413 16.9343 53.8413 17.0677V22.2074C53.8413 23.1333 53.2763 23.3373 52.6643 23.3373C52.0522 23.3373 51.4873 23.1411 51.4873 22.2074V17.0677C51.4873 16.9421 51.3774 16.8323 51.2519 16.8323H48.9606C48.835 16.8323 48.7173 16.9343 48.7173 17.0677V22.2074C48.7173 25.2284 50.8438 25.6914 52.6722 25.6914C54.4926 25.6914 56.627 25.2363 56.627 22.2074V17.0677C56.6116 16.9343 56.4938 16.8323 56.3684 16.8323Z" fill="white"/>
<path fill-rule="evenodd" clip-rule="evenodd" d="M47.6823 19.8761C47.6823 21.1395 46.9683 21.8771 46.3327 22.1596L47.9413 25.2356C47.9648 25.2748 47.9727 25.3219 47.9727 25.3611C47.9727 25.4945 47.8707 25.573 47.7608 25.573H45.3048C45.1144 25.573 45.0607 25.4705 45.0033 25.3612C44.9992 25.3534 44.9951 25.3455 44.9909 25.3376L43.5941 22.5755H42.8251V25.3376C42.8251 25.4631 42.7153 25.573 42.5897 25.573H40.2985C40.1729 25.573 40.0552 25.4631 40.0552 25.3376V17.8516C40.0552 17.1219 40.2435 16.9649 40.8791 16.8551C41.2793 16.7923 43.037 16.7139 43.8453 16.7139C46.215 16.7139 47.6823 17.4201 47.6823 19.6407V19.8761ZM44.112 20.5117C44.6927 20.5117 44.9203 20.2135 44.9203 19.8919V19.6486C44.9203 19.2484 44.7084 19.0287 44.112 19.0287H42.8408V20.5117H44.112Z" fill="white"/>
<path d="M20.5239 19.3038C20.4847 19.3038 20.4533 19.2959 20.4219 19.2724C19.5823 18.7466 19.2449 17.8129 19.4646 16.5574C19.598 15.7884 20.2728 14.6977 20.9947 14.0621C21.2929 13.8031 21.5597 13.5913 21.8029 13.4265C21.7716 13.3715 21.7402 13.3009 21.7167 13.246C21.6774 13.3166 21.6225 13.3794 21.5675 13.4343C21.3007 13.6854 21.1831 13.7403 21.0889 13.7403C21.0811 13.7403 21.0732 13.7403 21.0653 13.7403C21.0497 13.7561 20.9947 13.8031 20.8535 13.9836L20.8299 14.0071C20.3042 14.6349 19.8098 15.2312 19.5274 15.8198C19.1194 16.6672 19.1978 17.5225 19.2841 17.9619C19.292 18.0169 19.2841 18.0797 19.2449 18.1189C19.2056 18.166 19.1507 18.1895 19.0958 18.1895C19.0409 18.1895 18.9938 18.166 18.9546 18.1267C17.9031 16.9811 17.6363 14.9095 20.0766 12.5398L20.0924 12.5319C20.4455 12.2416 20.9163 11.9042 21.1831 11.7237C21.1752 11.7002 21.1752 11.6688 21.1752 11.6452C21.0261 11.7472 20.8378 11.8728 20.6024 12.0376C19.1743 13.1597 18.3503 14.3445 18.1541 15.5451C18.1385 15.6393 18.06 15.7099 17.9659 15.7099C17.8952 15.7099 17.8325 15.6707 17.7932 15.6079C17.291 14.6977 17.8639 13.8895 18.1071 13.5442C18.1228 13.5206 18.1463 13.4892 18.1541 13.4735L18.162 13.4657C19.088 12.2965 20.4298 11.504 20.9006 11.3235C20.9869 11.2921 21.0732 11.2607 21.1517 11.245C21.1517 11.2293 21.1517 11.2136 21.1517 11.1979C20.3748 11.4647 19.0722 12.3907 18.3503 13.1832C18.3111 13.2224 18.264 13.246 18.2091 13.246C18.1071 13.246 18.0207 13.1675 18.0129 13.0576C17.9894 12.3514 18.6093 11.606 18.9389 11.3078C19.1429 11.1273 19.7078 10.7507 20.3042 10.3897C20.0531 10.5153 19.7942 10.6487 19.5902 10.7663C19.5588 10.7821 19.5274 10.7899 19.496 10.7899C19.4254 10.7899 19.3548 10.7507 19.3234 10.6879C19.292 10.6251 19.292 10.5467 19.339 10.4917C19.7549 9.89536 20.5867 9.36961 21.1987 9.15777C21.2537 9.14204 21.3165 9.12638 21.3793 9.12638C21.4969 9.12638 21.6303 9.15777 21.7637 9.22838L21.8893 9.21272C21.8814 9.20483 21.8814 9.20483 21.8736 9.19699C21.8187 9.12638 21.7951 9.03221 21.8108 8.94587C21.8265 8.87525 21.8736 8.81247 21.9442 8.79681C22.2424 8.71047 23.0742 8.58496 24.0079 8.58496C24.8789 8.58496 26.0795 8.6948 26.8799 9.21272C26.9505 9.25977 26.9819 9.34611 26.9584 9.43239C26.9348 9.51873 26.8564 9.57362 26.77 9.57362C26.7622 9.57362 26.7465 9.57362 26.7386 9.57362C26.5738 9.54223 26.3934 9.51873 26.1894 9.51873C25.9932 9.51873 25.7892 9.54223 25.5538 9.59718C25.5381 9.59718 25.5224 9.60501 25.5145 9.60501C25.491 9.60501 25.4675 9.60501 25.4517 9.59718C25.3576 9.56579 25.2634 9.5344 25.1771 9.51084C25.2163 9.55012 25.2321 9.59718 25.2321 9.65213C25.2242 9.73057 25.1693 9.80119 25.0829 9.82475C24.5886 9.95031 24.0236 10.1779 23.6862 10.3741L23.8902 10.5781C24.7926 9.93459 25.6558 9.6129 26.4718 9.6129C27.335 9.6129 27.8843 9.97381 28.1197 10.1308C28.5827 10.4289 28.8573 11.143 28.8259 11.9512C28.8181 12.0532 28.7396 12.1396 28.6297 12.1396C28.5983 12.1396 28.5591 12.1318 28.5277 12.1082C27.5469 11.5275 26.3698 11.4491 25.4517 11.4491C25.2477 11.4491 25.0437 11.4569 24.8711 11.4569H24.7926C24.8083 11.4726 24.824 11.4961 24.8319 11.5275C25.0987 11.5118 25.3419 11.4961 25.5616 11.4961C26.7465 11.4961 27.7117 11.7629 28.6847 12.3593C29.2104 12.6967 29.4301 13.3166 29.383 14.3053C29.3752 14.4073 29.2889 14.4936 29.1947 14.4936C29.179 14.4936 29.1633 14.4936 29.1476 14.4858C29.1869 14.5721 29.2183 14.6741 29.234 14.7761C29.2418 14.8467 29.2261 14.9095 29.179 14.9645C29.1398 15.0037 29.0927 15.0272 29.0378 15.0272C29.0299 15.0272 29.0221 15.0272 29.0064 15.0272C28.771 14.988 28.6847 14.9801 28.4649 14.9488C28.3943 14.9409 28.3551 14.886 28.3394 14.8624C28.1668 14.6113 27.1702 13.6462 25.4753 13.5442H25.4675L25.1849 13.7561C25.2163 13.7561 25.2477 13.7561 25.2791 13.7561C25.8912 13.7561 27.0368 13.8581 27.7666 14.5172C27.8215 14.5721 27.8451 14.6505 27.8137 14.7291C27.7823 14.8075 27.7117 14.8546 27.6253 14.8546C27.6175 14.8546 27.6097 14.8546 27.6097 14.8546C27.3115 14.8232 26.9898 14.8075 26.6759 14.8075C26.1894 14.8075 25.7421 14.8467 25.4831 14.9017C25.4282 14.9174 25.3576 14.9331 25.2713 14.9488C24.3611 15.1292 22.2189 15.5608 21.3793 18.4485C21.3479 18.5505 21.2459 18.6132 21.1046 18.6132C20.9398 18.6132 20.7672 18.5348 20.7436 18.3778C20.6338 17.7265 20.7201 16.4004 22.6034 14.8232L22.517 14.6663L22.4464 14.7447C22.3522 14.8467 22.2424 14.9488 22.1325 15.0665C21.3007 15.9061 20.1551 17.0517 20.7515 19.0762C20.7672 19.139 20.7593 19.1939 20.7201 19.2488C20.6416 19.2724 20.5867 19.3038 20.5239 19.3038Z" fill="#44BE4C"/>
<path d="M23.976 8.69463C24.9568 8.69463 26.0554 8.82803 26.7773 9.29883C26.8401 9.33805 26.8087 9.44006 26.7381 9.44006C26.7303 9.44006 26.7302 9.44006 26.7224 9.44006C26.5262 9.40867 26.3458 9.38511 26.1496 9.38511C25.9534 9.38511 25.7494 9.40867 25.4904 9.46361C25.4826 9.46361 25.4826 9.46361 25.4748 9.46361C25.4669 9.46361 25.459 9.46361 25.4512 9.45578C24.8235 9.23605 24.2899 9.1576 23.7641 9.1576C23.4973 9.1576 23.2305 9.17327 22.948 9.20466C22.8931 9.21249 22.8617 9.26744 22.8853 9.31449L22.901 9.34588C22.9167 9.36944 22.9402 9.393 22.9716 9.393C23.1599 9.38511 23.4817 9.35377 23.8269 9.35377C24.2349 9.35377 24.6822 9.393 25.0118 9.54206C25.0902 9.57345 25.0746 9.65979 24.9961 9.68329C24.4782 9.81669 23.874 10.06 23.5209 10.2718C23.4817 10.2954 23.4738 10.3503 23.4973 10.3817L23.7641 10.6485C23.7798 10.6642 23.8033 10.6799 23.8269 10.6799C23.8426 10.6799 23.8583 10.672 23.874 10.6642C24.9019 9.92658 25.7494 9.69901 26.4164 9.69901C27.2325 9.69901 27.7739 10.0443 28.0014 10.1934C28.4644 10.4916 28.6841 11.2056 28.6527 11.904C28.6527 11.9511 28.6135 11.9746 28.5743 11.9746C28.5586 11.9746 28.5507 11.9746 28.535 11.9667C27.5463 11.3783 26.3536 11.2919 25.3963 11.2919C25.1138 11.2919 24.8548 11.2998 24.6194 11.2998C24.5488 11.2998 24.5174 11.3861 24.5723 11.4332L24.643 11.4881C24.6508 11.4959 24.6587 11.5117 24.6665 11.5195L24.6744 11.5509C24.6822 11.5823 24.7136 11.5979 24.745 11.5979C24.745 11.5979 24.745 11.5979 24.7528 11.5979C25.0039 11.5823 25.255 11.5666 25.5062 11.5666C26.5027 11.5666 27.4835 11.7471 28.5743 12.414C29.0137 12.6965 29.2648 13.2222 29.2177 14.258C29.2177 14.2973 29.1785 14.3287 29.1471 14.3287C29.1392 14.3287 29.1392 14.3287 29.1314 14.3287C28.8724 14.2659 28.6527 13.6303 28.0721 13.4184C28.0642 13.4184 28.0563 13.4106 28.0485 13.4106C27.9857 13.4106 27.9465 13.4969 28.0014 13.544C28.3545 13.85 28.9823 14.1403 29.0686 14.7524C29.0764 14.8073 29.0451 14.8701 28.998 14.8701H28.9902C28.7469 14.8309 28.6606 14.823 28.4487 14.7917C28.433 14.7917 28.4173 14.7759 28.4095 14.7603C28.2761 14.5641 27.2874 13.4969 25.4512 13.3949C25.4355 13.3949 25.4198 13.387 25.412 13.387L24.9804 13.7088C24.9176 13.7558 24.949 13.8422 25.0275 13.8422C25.0981 13.8422 25.1687 13.8343 25.2472 13.8343C26.0162 13.8343 27.0206 13.9912 27.6562 14.5641C27.7111 14.6112 27.6719 14.6975 27.6013 14.6975H27.5934C27.2795 14.6661 26.9578 14.6504 26.6518 14.6504C26.1496 14.6504 25.6944 14.6896 25.4355 14.7524C24.7607 14.9172 22.1869 15.1526 21.2453 18.3777C21.2296 18.4326 21.159 18.464 21.0805 18.464C20.9706 18.464 20.8451 18.4091 20.8294 18.3227C20.7195 17.7028 20.8059 16.416 22.6734 14.8623C22.7048 14.8387 22.7126 14.7995 22.6891 14.7681C22.6498 14.6975 22.6106 14.619 22.5557 14.5249C22.54 14.5013 22.5164 14.4856 22.4851 14.4856C22.4616 14.4856 22.4458 14.4935 22.4302 14.5091C22.3909 14.5484 22.3596 14.5876 22.3203 14.6269C21.5199 15.49 19.9035 16.7063 20.6019 19.0682C20.6175 19.1231 20.5783 19.1702 20.5312 19.1702C20.5155 19.1702 20.5077 19.1702 20.492 19.1623C19.6367 18.6366 19.3934 17.6871 19.5896 16.565C19.7073 15.8588 20.3429 14.7759 21.0805 14.1403C21.4022 13.8578 21.6768 13.646 21.9044 13.489C21.9358 13.4655 21.9436 13.4263 21.928 13.3949C21.8809 13.3086 21.8338 13.2066 21.7867 13.1046C21.771 13.0732 21.7475 13.0575 21.7161 13.0575C21.6926 13.0575 21.6612 13.0732 21.6533 13.0967C21.6141 13.183 21.5592 13.2615 21.4885 13.3243C21.2296 13.5754 21.1433 13.5989 21.0883 13.5989C21.0727 13.5989 21.0648 13.5989 21.0569 13.5989C21.0099 13.5989 20.9628 13.6224 20.7587 13.8892C20.2252 14.5327 19.7151 15.1369 19.417 15.7489C19.0403 16.5336 19.0482 17.3654 19.1658 17.9618C19.1737 18.0167 19.1344 18.0559 19.0874 18.0559C19.0717 18.0559 19.0482 18.0481 19.0324 18.0324C18.2086 17.1378 17.5259 15.1605 20.1467 12.6102C20.1467 12.6102 20.1467 12.6102 20.1546 12.6024C20.5077 12.3042 20.9785 11.9746 21.2531 11.7785C21.2767 11.7627 21.2924 11.7313 21.2845 11.6999C21.2688 11.6058 21.2531 11.5038 21.2531 11.4018C21.1276 11.4881 20.9 11.6451 20.5077 11.904C20.5077 11.904 20.5077 11.904 20.4998 11.904C18.5146 13.4655 18.1222 14.7995 18.0124 15.49C18.0045 15.5293 17.9731 15.5528 17.9339 15.5528C17.9104 15.5528 17.879 15.5371 17.8633 15.5135C17.3611 14.5955 18.0202 13.7951 18.2242 13.4969C18.2242 13.4969 18.2242 13.4969 18.2242 13.489C19.158 12.312 20.4763 11.5509 20.9079 11.3861C21.0177 11.3469 21.104 11.3233 21.1747 11.3076C21.2139 11.2998 21.2374 11.2684 21.2374 11.2291C21.2374 11.1742 21.2374 11.1271 21.2374 11.0958C21.2374 11.0487 21.1982 11.0173 21.159 11.0173C21.1511 11.0173 21.1354 11.0173 21.1276 11.0251C21.1119 11.033 21.104 11.033 21.0883 11.0408C20.2723 11.3155 18.9383 12.2806 18.2321 13.0575C18.2164 13.0732 18.1928 13.081 18.1772 13.081C18.1379 13.081 18.0987 13.0496 18.0987 13.0104C18.083 12.3591 18.6715 11.6372 18.9854 11.3547C19.2914 11.0801 20.4998 10.3189 21.2924 9.89519C21.3159 9.88736 21.3237 9.8638 21.3316 9.84024C21.3394 9.80102 21.3473 9.76963 21.3551 9.7304C21.3159 9.74607 21.2845 9.76179 21.2531 9.76963C21.0255 9.84024 20.0683 10.2954 19.5033 10.6171C19.4876 10.6249 19.4797 10.6249 19.464 10.6249C19.4091 10.6249 19.362 10.5622 19.4012 10.5072C19.7858 9.95014 20.5861 9.43222 21.206 9.22038C21.2531 9.20466 21.3002 9.19682 21.3473 9.19682C21.4728 9.19682 21.5906 9.24388 21.6926 9.29099C21.7004 9.29883 21.7161 9.29883 21.724 9.29883H21.7318L22.3046 9.22038L22.3124 9.20466C21.8966 9.1811 21.8809 8.99281 21.8966 8.90647C21.9044 8.87508 21.9201 8.85942 21.9515 8.85153C22.2104 8.82803 23.0344 8.69463 23.976 8.69463ZM23.976 8.45923C23.0344 8.45923 22.179 8.58474 21.8809 8.67107C21.7632 8.70246 21.6847 8.79663 21.6612 8.91431C21.6533 8.96142 21.6533 9.01631 21.6612 9.06343C21.5513 9.0242 21.4493 9.00065 21.3473 9.00065C21.2688 9.00065 21.1982 9.00848 21.1276 9.03204C20.4998 9.24388 19.6367 9.79318 19.2051 10.4131C19.1423 10.5072 19.1344 10.6328 19.1816 10.7348C19.2129 10.7897 19.2522 10.829 19.2992 10.8604C19.0874 11.0016 18.9226 11.1271 18.8284 11.2135C18.4832 11.5195 17.8476 12.3042 17.8633 13.0496C17.8633 13.183 17.9496 13.2929 18.0752 13.3321C18.0673 13.3478 18.0516 13.3556 18.0438 13.3714C18.0359 13.3792 18.0359 13.387 18.0281 13.387C18.0124 13.4106 17.9967 13.4341 17.981 13.4576C17.722 13.8186 17.1257 14.6661 17.6593 15.6469C17.7142 15.7489 17.8162 15.8117 17.9339 15.8117C17.981 15.8117 18.0281 15.8039 18.0673 15.7803C18.0594 15.8353 18.0594 15.8823 18.0516 15.9373C17.9888 17.0829 18.5224 17.8441 18.852 18.1972C18.9148 18.2599 18.9932 18.2992 19.0796 18.2992C19.1737 18.2992 19.26 18.2599 19.3228 18.1815C19.3542 18.1423 19.3777 18.103 19.3856 18.0559C19.5425 18.6131 19.8642 19.0525 20.3586 19.3585C20.4057 19.3899 20.4606 19.4056 20.5233 19.4056C20.6175 19.4056 20.7117 19.3585 20.7745 19.2801C20.8373 19.2016 20.8529 19.0995 20.8215 19.0054C20.7823 18.8641 20.7431 18.7229 20.7195 18.5895C20.8137 18.6601 20.9393 18.6994 21.0648 18.6994C21.261 18.6994 21.4101 18.6052 21.4493 18.4483C22.2732 15.6313 24.3605 15.2075 25.255 15.0271C25.3414 15.0113 25.412 14.9957 25.4748 14.9799C25.718 14.9172 26.1574 14.8858 26.6361 14.8858C26.9421 14.8858 27.2639 14.9015 27.5541 14.9251C27.562 14.9251 27.5777 14.9251 27.5855 14.9251C27.7189 14.9251 27.8367 14.8466 27.8837 14.721C27.8994 14.6739 27.9073 14.619 27.8994 14.5641C28.0563 14.6975 28.1584 14.8152 28.2055 14.8779C28.2604 14.9564 28.331 15.0035 28.4095 15.0113C28.6292 15.0427 28.7077 15.0506 28.9509 15.0898C28.9666 15.0898 28.9823 15.0898 28.998 15.0898C29.0843 15.0898 29.1706 15.0506 29.2256 14.9878C29.2883 14.9093 29.3197 14.8073 29.304 14.7053C29.2962 14.6425 29.2805 14.5876 29.2648 14.5327C29.3746 14.4856 29.4531 14.3836 29.461 14.258C29.5159 13.2222 29.2726 12.571 28.7077 12.21C28.692 12.2021 28.6841 12.1943 28.6684 12.1865C28.794 12.1472 28.8882 12.0374 28.896 11.8961C28.9352 11.0408 28.6449 10.3032 28.1427 9.97364C27.9701 9.8638 27.5855 9.61268 27.0206 9.495C27.0363 9.47145 27.0441 9.44789 27.052 9.42439C27.0912 9.29099 27.0363 9.14971 26.9186 9.07126C26.0868 8.5769 24.8548 8.46706 23.976 8.45923ZM23.8269 10.3738C23.8897 10.3424 23.9525 10.311 24.0152 10.2797C23.9603 10.3189 23.9054 10.3582 23.8426 10.3974L23.8269 10.3738Z" fill="black"/>
<path d="M23.1373 16.0315C22.9883 16.0315 22.8706 15.9922 22.7921 15.9138C22.6744 15.7961 22.6823 15.6234 22.6901 15.4979C22.6901 15.4665 22.6901 15.443 22.6901 15.4194C22.6823 15.3488 22.6823 15.239 22.6901 15.0663C22.6901 14.6897 22.6901 14.0619 22.6509 13.0967V13.0261L22.7058 12.9869C22.7529 12.9555 23.1531 12.6887 23.4042 12.6887C23.5062 12.6887 23.5689 12.7358 23.6003 12.775C23.6396 12.8221 23.8044 13.0183 24.0084 13.2615C24.4949 13.8343 25.154 14.6269 25.2796 14.7995C25.3816 14.9408 25.3737 15.0585 25.358 15.137C25.311 15.3096 25.1383 15.4037 25.0442 15.443C25.0206 15.4508 24.4792 15.6862 23.9378 15.8274C23.5846 15.9687 23.3257 16.0315 23.1373 16.0315Z" fill="#FCEE21"/>
<path d="M23.3964 12.814C23.4434 12.814 23.4748 12.8218 23.4984 12.8532C23.6318 13.018 24.9971 14.6267 25.1697 14.8777C25.3424 15.1289 25.1305 15.2858 24.9815 15.3485C24.8323 15.4113 24.3459 15.6075 23.8829 15.7331C23.5298 15.8664 23.2944 15.9214 23.1374 15.9214C22.7216 15.9214 22.8236 15.5761 22.8157 15.4192C22.8 15.1995 22.8392 14.5011 22.7686 13.0965C22.7686 13.0886 23.1766 12.814 23.3964 12.814ZM23.3964 12.5786C23.1296 12.5786 22.7451 12.8218 22.6352 12.8925L22.5254 12.9631L22.5332 13.0965C22.5803 14.0617 22.5803 14.6894 22.5725 15.0661C22.5725 15.2387 22.5725 15.3485 22.5725 15.427C22.5725 15.4427 22.5725 15.4663 22.5725 15.4976C22.5646 15.6232 22.5568 15.8351 22.7058 15.9998C22.8079 16.1018 22.9491 16.1568 23.1296 16.1568C23.3336 16.1568 23.6004 16.094 23.9535 15.9606C24.5107 15.8115 25.0521 15.5761 25.0756 15.5683C25.1933 15.5212 25.3973 15.4035 25.4601 15.1837C25.4915 15.0817 25.4915 14.9248 25.3659 14.7443C25.2483 14.5795 24.6989 13.9204 24.0869 13.1985C23.8829 12.9552 23.7181 12.7591 23.6788 12.712C23.6396 12.6571 23.5533 12.5786 23.3964 12.5786Z" fill="black"/>
<path d="M21.9044 14.7602C21.4179 14.7602 20.9079 14.509 20.5783 14.101C20.2644 13.7165 20.1467 13.2535 20.2487 12.7906L20.2722 12.6964C20.4135 12.0294 20.8372 9.98925 21.4885 8.49045L21.5356 8.38062L21.6455 8.42773C22.336 8.74941 25.2158 11.182 25.4669 11.433C25.8592 11.8254 25.9691 12.3747 25.7494 12.9004C25.514 13.4654 24.9882 13.8263 24.3919 13.8263C24.0309 13.8263 23.6699 13.6929 23.3168 13.434C23.1206 14.2736 22.6028 14.7602 21.9044 14.7602Z" fill="#FCEE21"/>
<path d="M21.5908 8.53754C22.2734 8.85139 25.1454 11.2918 25.373 11.5194C26.189 12.3354 25.4906 13.7086 24.3842 13.7086C24.0311 13.7086 23.6388 13.5674 23.2386 13.2221C23.066 14.2422 22.4931 14.6424 21.9046 14.6424C21.0493 14.6424 20.1548 13.8028 20.3588 12.8141C20.4765 12.2883 20.9159 10.1069 21.5908 8.53754ZM21.473 8.22363L21.3789 8.44337C20.7276 9.95783 20.296 11.998 20.1548 12.6729L20.1312 12.767C20.0292 13.2613 20.1548 13.7635 20.4843 14.1794C20.8375 14.611 21.3789 14.8856 21.9046 14.8856C22.6108 14.8856 23.1445 14.4227 23.3877 13.6301C23.7094 13.8342 24.0547 13.944 24.3921 13.944C25.0277 13.944 25.6084 13.5517 25.8594 12.9396C26.0949 12.3747 25.9772 11.7704 25.5534 11.3467C25.2945 11.0878 22.4225 8.65521 21.7006 8.3178L21.473 8.22363Z" fill="black"/>
<path d="M68.5867 13.8979H71.3691V14.9744H68.5867V13.8979ZM68.6859 17.0861H67.3442V11.2893H71.7252V12.3659H68.6859V17.0861ZM71.637 17.0861L74.2205 11.2893H75.5457L78.1375 17.0861H76.7301L74.6101 11.9684H75.1398L73.0115 17.0861H71.637ZM72.9288 15.8439L73.2849 14.8254H76.2661L76.6304 15.8439H72.9288ZM78.739 17.0861V11.2893H80.0806V17.0861H78.739ZM81.4562 17.0861V11.2893H83.9653C84.4846 11.2893 84.9316 11.3749 85.3069 11.546C85.6827 11.7117 85.9725 11.9518 86.1769 12.2665C86.3807 12.5812 86.4831 12.9566 86.4831 13.3927C86.4831 13.8233 86.3807 14.196 86.1769 14.5107C85.9725 14.8198 85.6827 15.0573 85.3069 15.2229C84.9316 15.3885 84.4846 15.4713 83.9653 15.4713H82.2018L82.7979 14.8833V17.0861H81.4562ZM85.1415 17.0861L83.6925 14.9827H85.125L86.5905 17.0861H85.1415ZM82.7979 15.0324L82.2018 14.403H83.8908C84.3049 14.403 84.6145 14.3147 84.8182 14.1381C85.0226 13.9558 85.125 13.7074 85.125 13.3927C85.125 13.0725 85.0226 12.8241 84.8182 12.6474C84.6145 12.4707 84.3049 12.3824 83.8908 12.3824H82.2018L82.7979 11.7448V15.0324Z" fill="white"/>
<path d="M70.1182 25.197C69.6876 25.197 69.2877 25.1252 68.9179 24.9817C68.5531 24.8326 68.2359 24.6256 67.9653 24.3606C67.6946 24.0956 67.4848 23.7864 67.3358 23.4331C67.1868 23.0743 67.1123 22.6823 67.1123 22.2572C67.1123 21.8321 67.1868 21.4429 67.3358 21.0895C67.4848 20.7307 67.6946 20.4188 67.9653 20.1538C68.2414 19.8888 68.5619 19.6845 68.9262 19.541C69.2905 19.3919 69.6876 19.3174 70.1182 19.3174C70.5269 19.3174 70.9082 19.3837 71.261 19.5161C71.6204 19.6487 71.9266 19.8501 72.1802 20.1207L71.9156 20.394C71.6669 20.151 71.3908 19.9771 71.0873 19.8722C70.7893 19.7618 70.4716 19.7066 70.1352 19.7066C69.7649 19.7066 69.4203 19.7701 69.0998 19.8971C68.7854 20.0241 68.5093 20.2035 68.2715 20.4353C68.0398 20.6672 67.8579 20.9377 67.7253 21.2469C67.5982 21.5561 67.5347 21.8928 67.5347 22.2572C67.5347 22.6216 67.5982 22.9583 67.7253 23.2675C67.8579 23.5767 68.0398 23.8472 68.2715 24.079C68.5093 24.3109 68.7854 24.4903 69.0998 24.6173C69.4203 24.7443 69.7649 24.8078 70.1352 24.8078C70.4716 24.8078 70.7893 24.7553 71.0873 24.6505C71.3908 24.54 71.6669 24.3606 71.9156 24.1122L72.1802 24.3854C71.9266 24.6559 71.6204 24.8602 71.261 24.9982C70.9082 25.1307 70.5269 25.197 70.1182 25.197ZM72.4722 25.1556L75.139 19.3588H75.5614L78.2277 25.1556H77.7725L75.2552 19.6238H75.4371L72.928 25.1556H72.4722ZM73.4496 23.5242L73.5903 23.1681H77.0603L77.2011 23.5242H73.4496ZM80.8041 25.197C80.3735 25.197 79.9648 25.1252 79.5781 24.9817C79.1973 24.8326 78.9021 24.6421 78.6923 24.4103L78.8829 24.0956C79.0812 24.2999 79.3518 24.4738 79.6942 24.6173C80.0421 24.7553 80.4091 24.8244 80.7959 24.8244C81.1821 24.8244 81.4966 24.7747 81.7398 24.6753C81.988 24.5704 82.1704 24.4324 82.2865 24.2612C82.4076 24.0901 82.4684 23.8996 82.4684 23.6899C82.4684 23.4414 82.4021 23.2427 82.2696 23.0936C82.137 22.9445 81.9633 22.8258 81.748 22.7375C81.5327 22.6492 81.2983 22.5746 81.0441 22.5139C80.7899 22.4532 80.5335 22.3897 80.2738 22.3235C80.0147 22.2517 79.7769 22.1606 79.5616 22.0502C79.3464 21.9398 79.1727 21.7907 79.0401 21.603C78.913 21.4097 78.8495 21.1613 78.8495 20.8577C78.8495 20.5817 78.9212 20.3277 79.0648 20.0958C79.2083 19.8639 79.4318 19.6763 79.7359 19.5327C80.0394 19.3891 80.4283 19.3174 80.9033 19.3174C81.2238 19.3174 81.5382 19.3643 81.8472 19.4582C82.1622 19.552 82.4301 19.679 82.6508 19.8391L82.4931 20.1786C82.2504 20.013 81.988 19.8916 81.7064 19.8143C81.4303 19.7314 81.1629 19.6901 80.9033 19.6901C80.5335 19.6901 80.2273 19.7425 79.984 19.8474C79.7413 19.9523 79.5616 20.093 79.4461 20.2697C79.3299 20.4409 79.2719 20.6341 79.2719 20.8494C79.2719 21.0978 79.3354 21.2966 79.4625 21.4456C79.5951 21.5947 79.7687 21.7134 79.984 21.8017C80.1993 21.8901 80.4371 21.9646 80.6962 22.0253C80.9559 22.086 81.2123 22.1523 81.4664 22.2241C81.7206 22.2903 81.9551 22.3786 82.1704 22.4891C82.3857 22.5995 82.5594 22.7485 82.6919 22.9363C82.8245 23.124 82.8908 23.3669 82.8908 23.665C82.8908 23.9355 82.8163 24.1895 82.6673 24.4268C82.5183 24.6587 82.2893 24.8464 81.9798 24.99C81.6763 25.128 81.284 25.197 80.8041 25.197ZM84.3266 25.1556V19.3588H84.749V25.1556H84.3266ZM86.7689 25.1556V19.3588H87.1249L91.2572 24.6339H91.0665V19.3588H91.4889V25.1556H91.1411L87.0006 19.8805H87.1912V25.1556H86.7689ZM95.9729 25.197C95.5423 25.197 95.1418 25.1252 94.772 24.9817C94.4077 24.8326 94.0878 24.6256 93.8117 24.3606C93.5411 24.0901 93.3313 23.7782 93.1823 23.4248C93.0332 23.066 92.9587 22.6768 92.9587 22.2572C92.9587 21.8376 93.0332 21.4512 93.1823 21.0978C93.3313 20.739 93.5411 20.4271 93.8117 20.1621C94.0878 19.8916 94.4077 19.6845 94.772 19.541C95.1418 19.3919 95.5423 19.3174 95.9729 19.3174C96.4035 19.3174 96.8012 19.3919 97.1655 19.541C97.5353 19.6845 97.8552 19.8888 98.1258 20.1538C98.3965 20.4188 98.6063 20.7307 98.7553 21.0895C98.9098 21.4429 98.987 21.8321 98.987 22.2572C98.987 22.6823 98.9098 23.0743 98.7553 23.4331C98.6063 23.7864 98.3965 24.0956 98.1258 24.3606C97.8552 24.6256 97.5353 24.8326 97.1655 24.9817C96.8012 25.1252 96.4035 25.197 95.9729 25.197ZM95.9729 24.8078C96.3427 24.8078 96.6851 24.7443 96.9995 24.6173C97.3145 24.4903 97.5879 24.3109 97.8196 24.079C98.0513 23.8472 98.231 23.5767 98.3581 23.2675C98.4901 22.9583 98.5564 22.6216 98.5564 22.2572C98.5564 21.8873 98.4901 21.5505 98.3581 21.2469C98.231 20.9377 98.0513 20.6672 97.8196 20.4353C97.5879 20.2035 97.3145 20.0241 96.9995 19.8971C96.6851 19.7701 96.3427 19.7066 95.9729 19.7066C95.6031 19.7066 95.2607 19.7701 94.9463 19.8971C94.6313 20.0241 94.3551 20.2035 94.1179 20.4353C93.8862 20.6672 93.7038 20.9377 93.5712 21.2469C93.4447 21.5505 93.3811 21.8873 93.3811 22.2572C93.3811 22.6216 93.4447 22.9583 93.5712 23.2675C93.7038 23.5767 93.8862 23.8472 94.1179 24.079C94.3551 24.3109 94.6313 24.4903 94.9463 24.6173C95.2607 24.7443 95.6031 24.8078 95.9729 24.8078Z" fill="white"/>
<path d="M61.8841 25.6578V11.4697C61.8841 11.4341 61.8167 11.4053 61.7334 11.4053H61.5061C61.4233 11.4053 61.356 11.4341 61.356 11.4697V25.6578C61.356 25.6934 61.4233 25.7223 61.5061 25.7223H61.7334C61.8167 25.7223 61.8841 25.6934 61.8841 25.6578Z" fill="#474747"/>
<path d="M61.5682 5.34425C61.5951 5.26155 61.7123 5.26155 61.7391 5.34425L62.3894 7.34542C62.4015 7.38246 62.436 7.40749 62.4749 7.40749H64.5791C64.6656 7.40749 64.7018 7.51875 64.6317 7.56987L62.929 8.80664C62.8978 8.82954 62.8846 8.87002 62.8967 8.907L63.547 10.9082C63.5738 10.9909 63.479 11.0597 63.4089 11.0086L61.7063 9.77174C61.675 9.7489 61.6323 9.7489 61.6011 9.77174L59.8984 11.0086C59.8283 11.0597 59.7335 10.9909 59.7604 10.9082L60.4107 8.907C60.4227 8.87002 60.4096 8.82954 60.3783 8.80664L58.6757 7.56987C58.6056 7.51875 58.6417 7.40749 58.7283 7.40749H60.8325C60.8714 7.40749 60.9059 7.38246 60.9179 7.34542L61.5682 5.34425Z" fill="#FDEE21"/>
<path d="M55.9581 6.24218C55.985 6.15951 56.1017 6.15951 56.1285 6.24218L56.426 7.15792C56.438 7.19496 56.4725 7.21999 56.5114 7.21999H57.4745C57.5616 7.21999 57.5978 7.33125 57.5271 7.38237L56.7481 7.94827C56.7169 7.97117 56.7037 8.01165 56.7158 8.04863L57.0132 8.96438C57.0401 9.0471 56.9453 9.11585 56.8752 9.06474L56.0962 8.49878C56.0644 8.47594 56.0222 8.47594 55.9904 8.49878L55.2114 9.06474C55.1413 9.11585 55.0465 9.0471 55.0734 8.96438L55.3708 8.04863C55.3829 8.01165 55.3698 7.97117 55.3385 7.94827L54.5596 7.38237C54.4893 7.33125 54.5254 7.21999 54.6124 7.21999H55.5752C55.6141 7.21999 55.6486 7.19496 55.6606 7.15792L55.9581 6.24218Z" fill="#FDEE21"/>
<path d="M109.454 3.28687H8.01953V32.0114H109.454V3.28687Z" stroke="#42C150" stroke-width="1.79529"/>
<path d="M66.9547 6.20984C66.9838 6.13123 67.095 6.13123 67.1235 6.20984L67.4713 7.16076C67.4839 7.19614 67.5179 7.2197 67.5557 7.2197H68.6557C68.745 7.2197 68.7795 7.33633 68.7045 7.38487L67.8329 7.94749C67.7978 7.97022 67.7831 8.01432 67.7973 8.05371L68.1342 8.97543C68.1638 9.05629 68.0739 9.12833 68.0016 9.08165L67.0879 8.4917C67.0583 8.47252 67.0199 8.47252 66.9903 8.4917L66.0771 9.08165C66.0048 9.12833 65.9144 9.05629 65.944 8.97543L66.2809 8.05371C66.2952 8.01432 66.2804 7.97022 66.2453 7.94749L65.3743 7.38487C65.2992 7.33633 65.3332 7.2197 65.423 7.2197H66.523C66.5608 7.2197 66.5943 7.19614 66.6074 7.16076L66.9547 6.20984Z" fill="#FDEE21"/>
<mask id="mask1_153_2338" style="mask-type:luminance" maskUnits="userSpaceOnUse" x="90" y="17" width="29" height="21">
<path d="M118.219 17.1799H90.7949V37.4495H118.219V17.1799Z" fill="white"/>
</mask>
<g mask="url(#mask1_153_2338)">
<path d="M90.7949 28.6853C90.7949 28.6853 92.3173 28.5556 93.2695 29.9406C94.2205 31.3256 97.9276 36.8913 97.9276 36.8913C97.9276 36.8913 98.1659 37.1618 98.3599 37.1682C98.6529 37.1711 98.8069 36.8913 98.8069 36.8913C98.8069 36.8913 101.434 32.2772 106.181 27.3555C109.95 23.4455 116.426 18.6583 117.341 18.1427C119.408 16.9782 115.504 17.9667 115.504 17.9667C115.504 17.9667 111.873 19.4003 107.544 22.3935C103.856 24.9438 99.2128 29.4804 98.5647 30.6116C97.7764 29.3711 96.4584 27.7783 95.2159 27.4811C92.8115 26.9055 91.0968 27.2397 90.7949 28.6853Z" fill="#202020"/>
<path d="M90.9297 28.3143C90.9297 28.3143 92.6356 28.0379 93.5872 29.4228C94.5388 30.8078 98.0207 36.0617 98.0207 36.0617C98.0207 36.0617 98.259 36.3322 98.4524 36.3386C98.7455 36.3415 98.9 36.0617 98.9 36.0617C98.9 36.0617 101.527 31.4477 106.273 26.526C110.044 22.6159 116.01 18.2474 116.925 17.7318C118.993 16.5672 115.375 17.6076 115.375 17.6076C115.375 17.6076 111.965 18.5707 107.637 21.5638C103.949 24.1142 99.3065 28.6507 98.6573 29.782C97.8696 28.5415 96.5509 26.9486 95.309 26.6514C92.9046 26.0761 91.2315 26.8686 90.9297 28.3143Z" fill="#FDEE21"/>
</g>
</g>
</g>
<defs>
<clipPath id="clip0_153_2338">
<rect width="126" height="37.2522" fill="white"/>
</clipPath>
</defs>
</svg>
