<svg width="70" height="48" viewBox="0 0 70 48" fill="none" xmlns="http://www.w3.org/2000/svg">
<g clip-path="url(#clip0_153_2316)">
<path d="M15.0726 47.5117V44.3573C15.0726 43.1495 14.3381 42.3606 13.0802 42.3606C12.4512 42.3606 11.7689 42.5706 11.2977 43.2539C10.931 42.6762 10.4065 42.3606 9.62089 42.3606C9.0964 42.3606 8.57191 42.5184 8.15297 43.0962V42.4662H7.05176V47.5106H8.15297V44.7251C8.15297 43.8317 8.62415 43.4117 9.35758 43.4117C10.0931 43.4117 10.4599 43.885 10.4599 44.7251V47.5106H11.56V44.7251C11.56 43.8317 12.0845 43.4117 12.7657 43.4117C13.5002 43.4117 13.8669 43.885 13.8669 44.7251V47.5106H15.0715L15.0726 47.5117ZM31.3753 42.4672H29.5929V40.9428H28.4917V42.4672H27.4961V43.465H28.4917V45.7772C28.4917 46.9328 28.964 47.6161 30.2219 47.6161C30.6941 47.6161 31.2176 47.4584 31.5853 47.2484L31.2709 46.3028C30.9553 46.5128 30.5886 46.565 30.3264 46.565C29.8029 46.565 29.5929 46.2506 29.5929 45.725V43.465H31.3753V42.4672ZM40.7063 42.3617C40.0773 42.3617 39.6573 42.6772 39.3951 43.0972V42.4672H38.2949V47.5117H39.3951V44.6739C39.3951 43.8328 39.7628 43.3606 40.444 43.3606C40.654 43.3606 40.9163 43.4128 41.1263 43.465L41.4397 42.415C41.2308 42.3617 40.9163 42.3617 40.7063 42.3617ZM26.6049 42.8872C26.0804 42.5195 25.3469 42.3617 24.5602 42.3617C23.3023 42.3617 22.4633 42.9928 22.4633 43.9906C22.4633 44.8317 23.0923 45.305 24.1935 45.4617L24.718 45.515C25.2936 45.6195 25.6092 45.7772 25.6092 46.0395C25.6092 46.4073 25.1892 46.6706 24.4557 46.6706C23.8554 46.674 23.2689 46.4903 22.7778 46.145L22.2544 46.9861C22.83 47.4061 23.6168 47.6161 24.4035 47.6161C25.8714 47.6161 26.7093 46.9339 26.7093 45.9872C26.7093 45.0939 26.0281 44.6217 24.9802 44.4628L24.4557 44.4106C23.9835 44.3584 23.6168 44.2539 23.6168 43.9383C23.6168 43.5706 23.9835 43.3606 24.5602 43.3606C25.1892 43.3606 25.8181 43.6228 26.1337 43.7806L26.6049 42.8872ZM55.8567 42.3617C55.2277 42.3617 54.8077 42.6772 54.5455 43.0972V42.4672H53.4443V47.5117H54.5455V44.6739C54.5455 43.8328 54.9122 43.3606 55.5934 43.3606C55.8034 43.3606 56.0656 43.4128 56.2756 43.465L56.5901 42.415C56.3801 42.3617 56.0667 42.3617 55.8567 42.3617ZM41.8064 44.9894C41.8064 46.5139 42.8554 47.6161 44.48 47.6161C45.2145 47.6161 45.7379 47.4584 46.2624 47.0384L45.739 46.145C45.319 46.4606 44.9 46.6183 44.4278 46.6183C43.5366 46.6183 42.9076 45.9872 42.9076 44.9894C42.9076 44.0428 43.5366 43.4128 44.4278 43.3606C44.9 43.3606 45.319 43.5183 45.739 43.8328L46.2624 42.9405C45.739 42.5195 45.2145 42.3617 44.48 42.3617C42.8554 42.3617 41.8064 43.465 41.8064 44.9894ZM51.9763 44.9894V42.4672H50.8762V43.0972C50.5084 42.625 49.985 42.3617 49.3027 42.3617C47.8881 42.3617 46.7869 43.465 46.7869 44.9894C46.7869 46.5139 47.8881 47.6161 49.3027 47.6161C50.0372 47.6161 50.5606 47.3539 50.8762 46.8806V47.5117H51.9763V44.9894ZM47.9404 44.9894C47.9404 44.0961 48.516 43.3606 49.4605 43.3606C50.3517 43.3606 50.9807 44.0428 50.9807 44.9894C50.9807 45.8828 50.3517 46.6183 49.4605 46.6183C48.5171 46.565 47.9404 45.8828 47.9404 44.9894ZM34.7824 42.3617C33.3144 42.3617 32.2665 43.4128 32.2665 44.9894C32.2665 46.565 33.3144 47.6161 34.8357 47.6161C35.5691 47.6161 36.3025 47.4061 36.8792 46.9339L36.3548 46.145C35.9358 46.4606 35.4113 46.6706 34.8879 46.6706C34.2056 46.6706 33.5244 46.355 33.3677 45.4617H37.0882V45.0417C37.1415 43.4128 36.198 42.3617 34.7824 42.3617ZM34.7824 43.3083C35.4646 43.3083 35.9358 43.7283 36.0403 44.5161H33.42C33.5244 43.8339 33.9956 43.3083 34.7824 43.3083ZM62.094 44.9894V40.4695H60.9928V43.0972C60.6261 42.625 60.1016 42.3617 59.4204 42.3617C58.0047 42.3617 56.9046 43.465 56.9046 44.9894C56.9046 46.5139 58.0047 47.6161 59.4204 47.6161C60.1538 47.6161 60.6783 47.3539 60.9928 46.8806V47.5117H62.094V44.9894ZM58.058 44.9894C58.058 44.0961 58.6337 43.3606 59.5771 43.3606C60.4694 43.3606 61.0983 44.0428 61.0983 44.9894C61.0983 45.8828 60.4694 46.6183 59.5782 46.6183C58.6337 46.565 58.058 45.8828 58.058 44.9894ZM21.2587 44.9894V42.4672H20.1575V43.0972C19.7897 42.625 19.2663 42.3617 18.5841 42.3617C17.1694 42.3617 16.0682 43.465 16.0682 44.9894C16.0682 46.5139 17.1694 47.6161 18.5841 47.6161C19.3186 47.6161 19.842 47.3539 20.1575 46.8806V47.5117H21.2577L21.2587 44.9894ZM17.1694 44.9894C17.1694 44.0961 17.7451 43.3606 18.6896 43.3606C19.5808 43.3606 20.2097 44.0428 20.2097 44.9894C20.2097 45.8828 19.5808 46.6183 18.6896 46.6183C17.7462 46.565 17.1694 45.8828 17.1694 44.9894Z" fill="#8B91AD"/>
<path d="M42.7486 4.1626H26.2358V33.9027H42.7486V4.1626Z" fill="#CACEE0"/>
<path d="M27.2864 19.0328C27.2864 12.9906 30.1178 7.63163 34.4682 4.16383C31.1567 1.54116 27.0558 0.11507 22.8315 0.11719C12.3982 0.11719 3.9585 8.57719 3.9585 19.0328C3.9585 29.4895 12.3982 37.9484 22.8304 37.9484C27.2331 37.9484 31.2691 36.424 34.4672 33.9028C30.1167 30.4873 27.2853 25.0761 27.2853 19.0328H27.2864ZM65.0281 19.0328C65.0281 29.4895 56.5883 37.9484 46.1562 37.9484C41.7535 37.9484 37.7175 36.424 34.5194 33.9028C38.9221 30.435 41.7012 25.0761 41.7012 19.0328C41.7012 12.9906 38.8699 7.63163 34.5194 4.16383C37.7164 1.64161 41.7535 0.11719 46.1562 0.11719C56.5894 0.11719 65.0281 8.62943 65.0281 19.0328Z" fill="#8B91AD"/>
</g>
<defs>
<clipPath id="clip0_153_2316">
<rect width="69.2919" height="47.9713" fill="white"/>
</clipPath>
</defs>
</svg>
