<svg width="124" height="45" viewBox="0 0 124 45" fill="none" xmlns="http://www.w3.org/2000/svg">
<path d="M50.0624 13.7603H52.3023L56.742 24.1828L61.0746 13.7603H63.3136V29.7616H60.9645V19.7775H60.8908L57.4772 28.1458H56.0098L52.4488 19.7775H52.4134V29.7616H50.0643V13.7603H50.0624ZM68.8531 18.3464H66.6515V29.7233H68.8531V18.3464ZM72.1193 13.7603H80.8915V16.0356H74.4693V20.7702H80.8915V22.8991H74.4693V29.7616H72.1203L72.1193 13.7603ZM85.4049 18.3474H83.2033V29.7243H85.4049V18.3474ZM88.4519 18.3474H90.6535V19.5593H90.6899C91.4241 18.6413 92.3785 18.2009 93.5521 18.2009C94.4701 18.2009 95.3153 18.5322 96.0486 19.1927C96.7838 19.8532 97.1858 20.8439 97.2221 22.1649V29.7253H95.0205V22.9728C95.0205 22.1649 94.8003 21.5771 94.3964 21.1378C93.9934 20.6975 93.4793 20.5127 92.8178 20.5127C92.1957 20.5127 91.6443 20.7329 91.2403 21.1378C90.8373 21.5408 90.6172 22.1659 90.6172 22.9728V29.7616H88.4155L88.4519 18.3474ZM102.362 18.3474H100.159V29.7243H102.362V18.3474ZM105.664 13.7966H107.867V18.3474H109.482V20.1097H107.867V26.753C107.867 27.3408 108.123 27.5963 108.637 27.5963H109.482V29.7616H108.343C107.573 29.7616 106.912 29.5041 106.435 29.0274C105.921 28.5507 105.664 27.8529 105.664 26.9732V20.1097H104.563V18.3474H105.664V13.7966ZM110.949 18.3474H113.297L115.904 26.3127H115.94L118.547 18.3474H120.895L116.161 32.1107C115.866 32.955 115.426 33.5428 114.913 33.873C114.363 34.2023 113.739 34.3487 113.078 34.3487H112.344V32.1835H113.004C113.297 32.1835 113.555 32.1107 113.811 31.9279C114.069 31.7431 114.215 31.5249 114.325 31.1937L114.913 29.2849L110.949 18.3474ZM67.7533 16.476C67.9318 16.4812 68.1095 16.4512 68.2763 16.3876C68.4432 16.324 68.5958 16.2282 68.7255 16.1055C68.8553 15.9829 68.9595 15.8358 69.0324 15.6728C69.1052 15.5098 69.1451 15.334 69.1499 15.1556C69.1547 14.9771 69.1242 14.7994 69.0602 14.6328C68.9963 14.4661 68.9 14.3137 68.777 14.1842C68.6541 14.0548 68.5068 13.9509 68.3436 13.8785C68.1804 13.8061 68.0045 13.7666 67.826 13.7622C67.4662 13.7525 67.1172 13.886 66.8558 14.1336C66.5944 14.3811 66.4421 14.7224 66.4323 15.0822C66.4225 15.4421 66.5561 15.7911 66.8036 16.0525C67.0512 16.3139 67.3934 16.4662 67.7533 16.476ZM84.3051 16.476C84.4835 16.4812 84.6613 16.4512 84.8281 16.3876C84.9949 16.324 85.1476 16.2282 85.2773 16.1055C85.4071 15.9829 85.5113 15.8358 85.5841 15.6728C85.657 15.5098 85.6969 15.334 85.7017 15.1556C85.7065 14.9771 85.676 14.7994 85.612 14.6328C85.548 14.4661 85.4518 14.3137 85.3288 14.1842C85.2058 14.0548 85.0585 13.9509 84.8954 13.8785C84.7322 13.8061 84.5563 13.7666 84.3778 13.7622C84.0179 13.7525 83.6689 13.886 83.4076 14.1336C83.1462 14.3811 82.9939 14.7224 82.9841 15.0822C82.9743 15.4421 83.1079 15.7911 83.3554 16.0525C83.603 16.3139 83.9452 16.4662 84.3051 16.476ZM101.261 16.476C101.534 16.483 101.803 16.4076 102.032 16.2596C102.262 16.1117 102.442 15.898 102.548 15.6464C102.618 15.479 102.654 15.2994 102.654 15.118C102.654 14.9367 102.617 14.7571 102.547 14.5898C102.477 14.4228 102.373 14.2716 102.243 14.145C102.113 14.0184 101.959 13.919 101.791 13.8527C101.585 13.7726 101.362 13.744 101.142 13.7693C100.923 13.7946 100.713 13.8731 100.53 13.9978C100.348 14.1226 100.199 14.29 100.095 14.4854C99.9921 14.6809 99.938 14.8986 99.9379 15.1196C99.9385 15.4734 100.077 15.813 100.324 16.0663C100.571 16.3195 100.907 16.4665 101.261 16.476ZM20.739 19.6694C20.9144 19.6694 21.0827 19.5997 21.2067 19.4756C21.3308 19.3516 21.4005 19.1833 21.4005 19.0079C21.4005 18.8325 21.3308 18.6642 21.2067 18.5401C21.0827 18.4161 20.9144 18.3464 20.739 18.3464C20.5635 18.3464 20.3953 18.4161 20.2712 18.5401C20.1472 18.6642 20.0775 18.8325 20.0775 19.0079C20.0775 19.1833 20.1472 19.3516 20.2712 19.4756C20.3953 19.5997 20.5635 19.6694 20.739 19.6694ZM19.0877 18.3464C19.1863 18.3536 19.2852 18.3409 19.3787 18.309C19.4723 18.2771 19.5584 18.2267 19.632 18.1608C19.7056 18.0949 19.7651 18.0148 19.8071 17.9254C19.849 17.8359 19.8725 17.739 19.8762 17.6402C19.8798 17.5415 19.8635 17.443 19.8282 17.3508C19.793 17.2585 19.7395 17.1742 19.6709 17.1031C19.6024 17.0319 19.5202 16.9753 19.4293 16.9367C19.3384 16.898 19.2406 16.878 19.1418 16.878C18.9514 16.8779 18.7684 16.9516 18.6314 17.0837C18.4943 17.2158 18.4138 17.3959 18.4067 17.5861C18.3997 17.7764 18.4668 17.9619 18.5938 18.1037C18.7208 18.2455 18.8979 18.3325 19.0877 18.3464ZM17.1809 17.1355C17.2844 17.1392 17.3875 17.122 17.4842 17.085C17.5808 17.0479 17.669 16.9918 17.7435 16.9199C17.818 16.8481 17.8772 16.7619 17.9177 16.6666C17.9582 16.5714 17.979 16.4689 17.979 16.3654C17.979 16.2619 17.9582 16.1594 17.9177 16.0642C17.8772 15.9689 17.818 15.8827 17.7435 15.8109C17.669 15.739 17.5808 15.6829 17.4842 15.6458C17.3875 15.6088 17.2844 15.5916 17.1809 15.5953C16.9814 15.6024 16.7925 15.6867 16.6539 15.8303C16.5153 15.974 16.4379 16.1658 16.4379 16.3654C16.4379 16.565 16.5153 16.7568 16.6539 16.9005C16.7925 17.0441 16.9814 17.1284 17.1809 17.1355ZM14.9409 16.2922C15.1453 16.2922 15.3413 16.211 15.4858 16.0665C15.6303 15.922 15.7115 15.726 15.7115 15.5216C15.7115 15.3172 15.6303 15.1212 15.4858 14.9767C15.3413 14.8322 15.1453 14.751 14.9409 14.751C14.7366 14.751 14.5406 14.8322 14.3961 14.9767C14.2515 15.1212 14.1704 15.3172 14.1704 15.5216C14.1704 15.726 14.2515 15.922 14.3961 16.0665C14.5406 16.211 14.7366 16.2922 14.9409 16.2922ZM12.4818 16.1811C12.6047 16.1892 12.7279 16.1724 12.8443 16.1319C12.9606 16.0913 13.0676 16.0278 13.1588 15.9451C13.2501 15.8624 13.3239 15.7622 13.3756 15.6505C13.4274 15.5387 13.4562 15.4177 13.4603 15.2946C13.4644 15.1715 13.4437 15.0488 13.3994 14.9338C13.3552 14.8189 13.2882 14.714 13.2026 14.6254C13.117 14.5369 13.0145 14.4664 12.9011 14.4182C12.7878 14.3701 12.6659 14.3452 12.5427 14.3451C12.3042 14.3451 12.075 14.4379 11.9036 14.6038C11.7323 14.7697 11.6321 14.9957 11.6243 15.2341C11.6165 15.4725 11.7017 15.7046 11.8619 15.8813C12.0221 16.058 12.2437 16.1655 12.4818 16.1811ZM9.8034 16.8436C10.0762 16.8436 10.3378 16.7352 10.5307 16.5423C10.7236 16.3494 10.832 16.0878 10.832 15.815C10.832 15.5422 10.7236 15.2806 10.5307 15.0877C10.3378 14.8948 10.0762 14.7864 9.8034 14.7864C9.5306 14.7864 9.26897 14.8948 9.07607 15.0877C8.88318 15.2806 8.77481 15.5422 8.77481 15.815C8.77481 16.0878 8.88318 16.3494 9.07607 16.5423C9.26897 16.7352 9.5306 16.8436 9.8034 16.8436ZM7.23414 18.7504C7.53574 18.7504 7.82499 18.6306 8.03826 18.4173C8.25152 18.204 8.37133 17.9148 8.37133 17.6132C8.37133 17.3116 8.25152 17.0223 8.03826 16.8091C7.82499 16.5958 7.53574 16.476 7.23414 16.476C6.93253 16.476 6.64328 16.5958 6.43002 16.8091C6.21675 17.0223 6.09694 17.3116 6.09694 17.6132C6.09694 17.9148 6.21675 18.204 6.43002 18.4173C6.64328 18.6306 6.93253 18.7504 7.23414 18.7504ZM5.40007 21.3943C5.72136 21.3943 6.02948 21.2667 6.25667 21.0395C6.48385 20.8123 6.61148 20.5042 6.61148 20.1829C6.61148 19.8616 6.48385 19.5535 6.25667 19.3263C6.02948 19.0992 5.72136 18.9715 5.40007 18.9715C5.07879 18.9715 4.77066 19.0992 4.54348 19.3263C4.3163 19.5535 4.18867 19.8616 4.18867 20.1829C4.18867 20.5042 4.3163 20.8123 4.54348 21.0395C4.77066 21.2667 5.07879 21.3943 5.40007 21.3943ZM5.25264 25.1745C5.60312 25.1745 5.93925 25.0353 6.18707 24.7875C6.4349 24.5396 6.57413 24.2035 6.57413 23.853C6.57413 23.5025 6.4349 23.1664 6.18707 22.9186C5.93925 22.6708 5.60312 22.5315 5.25264 22.5315C4.90216 22.5315 4.56603 22.6708 4.31821 22.9186C4.07038 23.1664 3.93115 23.5025 3.93115 23.853C3.93115 24.2035 4.07038 24.5396 4.31821 24.7875C4.56603 25.0353 4.90216 25.1745 5.25264 25.1745ZM7.34422 28.5861C7.74332 28.5861 8.12607 28.4276 8.40827 28.1454C8.69047 27.8631 8.84902 27.4804 8.84902 27.0813C8.84902 26.6822 8.69047 26.2995 8.40827 26.0173C8.12607 25.735 7.74332 25.5765 7.34422 25.5765C6.94499 25.5765 6.56212 25.7351 6.27982 26.0174C5.99752 26.2997 5.83893 26.6826 5.83893 27.0818C5.83893 27.481 5.99752 27.8639 6.27982 28.1462C6.56212 28.4285 6.94499 28.5861 7.34422 28.5861ZM23.3819 23.4495C23.7324 23.4495 24.0686 23.3103 24.3164 23.0625C24.5642 22.8147 24.7034 22.4785 24.7034 22.1281C24.7034 21.7776 24.5642 21.4414 24.3164 21.1936C24.0686 20.9458 23.7324 20.8066 23.3819 20.8066C23.0315 20.8066 22.6953 20.9458 22.4475 21.1936C22.1997 21.4414 22.0605 21.7776 22.0605 22.1281C22.0605 22.4785 22.1997 22.8147 22.4475 23.0625C22.6953 23.3103 23.0315 23.4495 23.3819 23.4495ZM26.2441 20.5864C26.614 20.5864 26.9688 20.4395 27.2303 20.1779C27.4919 19.9163 27.6388 19.5616 27.6388 19.1917C27.6388 18.8218 27.4919 18.467 27.2303 18.2055C26.9688 17.9439 26.614 17.797 26.2441 17.797C25.8742 17.797 25.5195 17.9439 25.2579 18.2055C24.9963 18.467 24.8494 18.8218 24.8494 19.1917C24.8494 19.5616 24.9963 19.9163 25.2579 20.1779C25.5195 20.4395 25.8742 20.5864 26.2441 20.5864ZM20.0804 26.4198C20.4698 26.43 20.8472 26.2851 21.1297 26.017C21.4121 25.7489 21.5765 25.3795 21.5867 24.9902C21.5969 24.6009 21.452 24.2235 21.1839 23.941C20.9158 23.6585 20.5464 23.4941 20.1571 23.4839C19.7677 23.4735 19.39 23.6182 19.1073 23.8862C18.8245 24.1542 18.6598 24.5236 18.6494 24.9131C18.6389 25.3025 18.7836 25.6802 19.0517 25.9629C19.3197 26.2457 19.689 26.4104 20.0785 26.4208H20.0804V26.4198ZM16.3356 29.0254C16.5669 29.0254 16.796 28.9799 17.0097 28.8914C17.2234 28.8029 17.4175 28.6731 17.5811 28.5096C17.7446 28.346 17.8744 28.1518 17.9629 27.9381C18.0514 27.7245 18.097 27.4954 18.097 27.2641C18.097 27.0328 18.0514 26.8038 17.9629 26.5901C17.8744 26.3764 17.7446 26.1822 17.5811 26.0187C17.4175 25.8551 17.2234 25.7254 17.0097 25.6369C16.796 25.5483 16.5669 25.5028 16.3356 25.5028C15.8685 25.5028 15.4205 25.6884 15.0902 26.0187C14.7599 26.349 14.5743 26.797 14.5743 27.2641C14.5743 27.7313 14.7599 28.1793 15.0902 28.5096C15.4205 28.8399 15.8685 29.0254 16.3356 29.0254ZM11.6748 30.3848C12.2102 30.3848 12.7237 30.1721 13.1023 29.7935C13.481 29.4149 13.6937 28.9014 13.6937 28.3659C13.6937 27.8305 13.481 27.317 13.1023 26.9384C12.7237 26.5598 12.2102 26.3471 11.6748 26.3471C11.1394 26.3471 10.6259 26.5598 10.2473 26.9384C9.86866 27.317 9.65596 27.8305 9.65596 28.3659C9.65596 28.9014 9.86866 29.4149 10.2473 29.7935C10.6259 30.1721 11.1394 30.3848 11.6748 30.3848ZM30.099 18.4938C30.5468 18.4938 30.9763 18.3159 31.293 17.9993C31.6097 17.6826 31.7876 17.2531 31.7876 16.8052C31.7876 16.3574 31.6097 15.9279 31.293 15.6112C30.9763 15.2946 30.5468 15.1166 30.099 15.1166C29.6511 15.1166 29.2216 15.2946 28.905 15.6112C28.5883 15.9279 28.4104 16.3574 28.4104 16.8052C28.4104 17.2531 28.5883 17.6826 28.905 17.9993C29.2216 18.3159 29.6511 18.4938 30.099 18.4938ZM34.7588 17.4284C35.2455 17.4284 35.7123 17.2351 36.0564 16.8909C36.4006 16.5468 36.5939 16.08 36.5939 15.5933C36.5939 15.1067 36.4006 14.6399 36.0564 14.2958C35.7123 13.9516 35.2455 13.7583 34.7588 13.7583C34.2722 13.7583 33.8054 13.9516 33.4613 14.2958C33.1171 14.6399 32.9238 15.1067 32.9238 15.5933C32.9238 16.08 33.1171 16.5468 33.4613 16.8909C33.8054 17.2351 34.2722 17.4284 34.7588 17.4284ZM38.9066 18.4191C39.1074 18.4243 39.3072 18.3892 39.4942 18.3159C39.6812 18.2426 39.8516 18.1326 39.9954 17.9924C40.1393 17.8522 40.2536 17.6846 40.3316 17.4996C40.4097 17.3145 40.4499 17.1157 40.4499 16.9148C40.4499 16.714 40.4097 16.5152 40.3316 16.3301C40.2536 16.145 40.1393 15.9775 39.9954 15.8373C39.8516 15.6971 39.6812 15.5871 39.4942 15.5138C39.3072 15.4405 39.1074 15.4054 38.9066 15.4105C38.5143 15.4206 38.1414 15.5834 37.8675 15.8645C37.5936 16.1455 37.4403 16.5224 37.4403 16.9148C37.4403 17.3073 37.5936 17.6842 37.8675 17.9652C38.1414 18.2462 38.5143 18.4091 38.9066 18.4191ZM40.9972 21.7226C41.1736 21.7275 41.3493 21.697 41.5137 21.6328C41.6782 21.5687 41.8281 21.4723 41.9546 21.3492C42.0812 21.2262 42.1818 21.079 42.2505 20.9164C42.3192 20.7538 42.3547 20.5791 42.3547 20.4026C42.3548 20.2261 42.3195 20.0514 42.2509 19.8887C42.1823 19.7261 42.0818 19.5789 41.9553 19.4557C41.8289 19.3326 41.679 19.236 41.5146 19.1718C41.3502 19.1075 41.1746 19.0769 40.9982 19.0816C40.6478 19.0816 40.3118 19.2208 40.0641 19.4685C39.8164 19.7162 39.6772 20.0522 39.6772 20.4026C39.6772 20.753 39.8164 21.089 40.0641 21.3367C40.3118 21.5844 40.6478 21.7236 40.9982 21.7236L40.9972 21.7226ZM40.9255 25.1725C41.2271 25.1725 41.5163 25.0527 41.7296 24.8395C41.9428 24.6262 42.0627 24.3369 42.0627 24.0353C42.0627 23.7337 41.9428 23.4445 41.7296 23.2312C41.5163 23.018 41.2271 22.8981 40.9255 22.8981C40.6237 22.8981 40.3343 23.018 40.121 23.2314C39.9076 23.4447 39.7878 23.7341 39.7878 24.0358C39.7878 24.3376 39.9076 24.6269 40.121 24.8403C40.3343 25.0537 40.6237 25.1725 40.9255 25.1725ZM39.0167 27.6317C39.1905 27.6398 39.3635 27.6035 39.5194 27.5263C39.6753 27.4491 39.8091 27.3335 39.908 27.1904C40.007 27.0473 40.068 26.8814 40.0852 26.7082C40.1024 26.5351 40.0753 26.3604 40.0065 26.2006C39.9345 26.0311 39.8185 25.884 39.6703 25.7746C39.5222 25.6653 39.3474 25.5977 39.1642 25.5789C38.981 25.5601 38.7962 25.5908 38.6289 25.6677C38.4616 25.7447 38.3181 25.8652 38.2132 26.0165C38.1083 26.1679 38.046 26.3446 38.0327 26.5283C38.0194 26.7119 38.0557 26.8958 38.1376 27.0607C38.2196 27.2256 38.3443 27.3654 38.4988 27.4657C38.6532 27.566 38.8317 27.623 39.0157 27.6307L39.0167 27.6317ZM36.5939 29.283C36.8664 29.283 37.1278 29.1747 37.3205 28.982C37.5132 28.7893 37.6215 28.5279 37.6215 28.2554C37.6215 27.9828 37.5132 27.7214 37.3205 27.5287C37.1278 27.336 36.8664 27.2278 36.5939 27.2278C36.3215 27.2278 36.0602 27.336 35.8676 27.5286C35.675 27.7212 35.5668 27.9825 35.5668 28.2549C35.5668 28.5273 35.675 28.7885 35.8676 28.9811C36.0602 29.1738 36.3215 29.283 36.5939 29.283ZM33.8782 29.7233C34.1216 29.7233 34.3551 29.6266 34.5273 29.4544C34.6995 29.2823 34.7962 29.0488 34.7962 28.8053C34.7962 28.5618 34.6995 28.3283 34.5273 28.1561C34.3551 27.984 34.1216 27.8873 33.8782 27.8873C33.6346 27.8873 33.4009 27.984 33.2287 28.1563C33.0564 28.3285 32.9597 28.5622 32.9597 28.8058C32.9597 29.0494 33.0564 29.283 33.2287 29.4553C33.4009 29.6275 33.6346 29.7233 33.8782 29.7233ZM31.3089 29.3921C31.4124 29.3958 31.5155 29.3786 31.6121 29.3415C31.7088 29.3045 31.797 29.2484 31.8715 29.1765C31.946 29.1046 32.0052 29.0185 32.0457 28.9232C32.0862 28.8279 32.107 28.7255 32.107 28.622C32.107 28.5185 32.0862 28.416 32.0457 28.3207C32.0052 28.2255 31.946 28.1393 31.8715 28.0674C31.797 27.9956 31.7088 27.9394 31.6121 27.9024C31.5155 27.8654 31.4124 27.8482 31.3089 27.8519C31.1094 27.859 30.9205 27.9433 30.7819 28.0869C30.6433 28.2305 30.5658 28.4224 30.5658 28.622C30.5658 28.8216 30.6433 29.0134 30.7819 29.157C30.9205 29.3007 31.1094 29.3849 31.3089 29.3921ZM29.181 28.4387C29.2796 28.4423 29.3779 28.426 29.4701 28.3907C29.5623 28.3555 29.6464 28.302 29.7174 28.2335C29.7885 28.165 29.845 28.0829 29.8836 27.9921C29.9221 27.9013 29.942 27.8036 29.942 27.7049C29.942 27.6063 29.9221 27.5086 29.8836 27.4178C29.845 27.327 29.7885 27.2449 29.7174 27.1764C29.6464 27.1079 29.5623 27.0544 29.4701 27.0192C29.3779 26.9839 29.2796 26.9676 29.181 26.9712C28.9862 26.9712 28.7995 27.0486 28.6618 27.1863C28.5241 27.324 28.4468 27.5107 28.4468 27.7054C28.4468 27.9002 28.5241 28.0869 28.6618 28.2246C28.7995 28.3623 28.9862 28.4387 29.181 28.4387ZM27.2349 27.2641C27.3252 27.2702 27.4159 27.2576 27.5012 27.2271C27.5865 27.1967 27.6647 27.1491 27.7309 27.0872C27.797 27.0253 27.8498 26.9505 27.8858 26.8674C27.9219 26.7843 27.9405 26.6947 27.9405 26.6041C27.9405 26.5135 27.9219 26.4239 27.8858 26.3408C27.8498 26.2577 27.797 26.1829 27.7309 26.121C27.6647 26.0591 27.5865 26.0115 27.5012 25.9811C27.4159 25.9506 27.3252 25.9381 27.2349 25.9441C27.0597 25.9441 26.8917 26.0137 26.7678 26.1376C26.6439 26.2614 26.5744 26.4294 26.5744 26.6046C26.5744 26.7798 26.6439 26.9478 26.7678 27.0716C26.8917 27.1955 27.0597 27.2641 27.2349 27.2641Z" fill="#CACEE0"/>
</svg>
