<svg width="127" height="46" viewBox="0 0 127 46" fill="none" xmlns="http://www.w3.org/2000/svg">
<path d="M23.3334 22.0723C23.3203 21.6627 23.112 21.4514 22.7216 21.4393H20.6174C20.1153 21.4635 19.8587 21.7331 19.8456 22.2242V25.8468C19.8587 26.35 20.1394 26.6086 20.6909 26.6317H22.6109C22.8071 26.6317 22.9782 26.5613 23.113 26.4204C23.1786 26.3717 23.2316 26.308 23.2676 26.2347C23.3037 26.1613 23.3217 26.0805 23.3203 25.9988L23.3334 22.0723ZM17.1548 21.557C17.1669 20.6544 17.3752 19.9631 17.7908 19.4942C17.9991 19.2949 18.2677 19.1309 18.5988 18.991C18.9409 18.8501 19.2589 18.7797 19.5769 18.7797H23.431C25.1316 18.7908 26 19.6813 26.0242 21.4514V26.9014C26.0121 27.5344 25.7555 28.0738 25.2534 28.5306C25.0229 28.7636 24.7487 28.9487 24.4465 29.0755C24.1443 29.2022 23.8201 29.2681 23.4924 29.2692H19.8466V33.1947H17.1548V21.557ZM30.9057 26.0924C30.9057 26.2453 30.9791 26.3621 31.1261 26.4556C31.2642 26.5672 31.4377 26.6254 31.6151 26.6197H33.683C34.1479 26.6197 34.3925 26.4446 34.4045 26.0924V25.3548C34.4045 24.9442 34.16 24.745 33.6589 24.745H31.603C31.3344 24.745 31.1502 24.7912 31.0395 24.8738C30.9429 24.9673 30.8936 25.1555 30.8936 25.4363L30.9057 26.0924ZM34.4176 22.0028C34.4287 21.6043 34.1842 21.4162 33.6951 21.4282H28.2632V18.7787H34.3804C36.1666 18.8028 37.0722 19.634 37.0964 21.2642V26.8189C37.0843 27.5233 36.8518 28.0969 36.4232 28.5658C35.9703 29.0458 35.3837 29.2803 34.6622 29.2803H30.9671C29.1688 29.2692 28.2501 28.4833 28.227 26.9135V24.7681C28.239 23.1279 29.1075 22.2957 30.8443 22.2725H34.4297L34.4176 22.0028ZM44.6697 30.5462C44.8739 30.5405 45.0693 30.4616 45.2201 30.3238C45.366 30.195 45.4395 30.0541 45.4395 29.9012V29.2692H41.9899C41.5371 29.2692 41.1829 29.2099 40.9132 29.1052C40.6315 29.0106 40.3497 28.8234 40.0579 28.5538C39.8076 28.3012 39.608 28.003 39.4702 27.6753C39.3474 27.3935 39.286 27.0413 39.286 26.6086V18.7797H41.9899V25.7764C41.9899 26.3389 42.2345 26.6197 42.7114 26.6197H44.6204C44.8359 26.6258 45.0458 26.5503 45.208 26.4083C45.366 26.2806 45.4395 26.1397 45.4395 25.9636V18.7787H48.1192V30.347C48.1072 31.2023 47.8747 31.8936 47.435 32.4098C46.9821 32.9251 46.3693 33.1947 45.5864 33.2068H39.2871V30.5462H44.6697ZM50.2355 26.6197H55.0435C55.4842 26.6086 55.7167 26.4325 55.7288 26.1165V25.8821C55.7246 25.8042 55.704 25.728 55.6684 25.6587C55.5577 25.4594 55.4229 25.3548 55.2759 25.3548H52.878C52.204 25.3547 51.5543 25.1036 51.0556 24.6504C50.5424 24.2287 50.2848 23.7246 50.2606 23.1158V21.1354C50.2848 19.5877 51.1663 18.8028 52.89 18.7797H58.4689V21.4393H53.7474C53.197 21.4393 52.9152 21.6033 52.9152 21.9324V22.19C52.9152 22.5301 53.197 22.6931 53.7705 22.6931H56.1454C56.4499 22.6952 56.7508 22.7587 57.0302 22.8797C57.3096 23.0007 57.5617 23.1769 57.7715 23.3975C58.2244 23.8544 58.4568 24.3938 58.482 25.0257V26.9598C58.4699 27.4992 58.2002 28.0496 57.6991 28.589C57.4925 28.8238 57.2379 29.0116 56.9524 29.1394C56.6958 29.234 56.3406 29.2803 55.8878 29.2803H50.2475L50.2355 26.6197ZM63.0938 26.0924C63.0938 26.2453 63.1672 26.3621 63.3142 26.4556C63.4369 26.5613 63.5959 26.6197 63.8032 26.6197H65.8832C66.3481 26.6197 66.5926 26.4446 66.6047 26.0924V25.3548C66.6047 24.9442 66.3602 24.745 65.8591 24.745H63.8032C63.5345 24.745 63.3504 24.7912 63.2407 24.8738C63.1431 24.9673 63.0938 25.1555 63.0938 25.4363V26.0924ZM66.6057 22.0028C66.6168 21.6043 66.3723 21.4162 65.8711 21.4282H60.4392V18.7787H66.5564C68.3426 18.8028 69.2472 19.634 69.2724 21.2642V26.8189C69.2603 27.5233 69.0279 28.0969 68.5992 28.5658C68.1463 29.0458 67.5597 29.2803 66.8382 29.2803H63.13C61.3318 29.2692 60.415 28.4833 60.3899 26.9135V24.7681C60.402 23.1279 61.2714 22.2957 63.0082 22.2725H66.6047L66.6057 22.0028ZM71.4741 17.2672C71.4862 16.5528 71.768 15.9782 72.3063 15.5445C72.8326 15.1108 73.5169 14.8763 74.3732 14.8652H76.087V17.4313H75.0465C74.4719 17.4433 74.1911 17.701 74.178 18.2162V18.7797H76.087V21.4393H74.178V29.2803H71.4741V17.2672ZM83.7569 21.9555V21.8972C83.7569 21.7563 83.6965 21.6386 83.5858 21.557C83.4471 21.4689 83.2852 21.424 83.1209 21.4282H81.2371C81.0233 21.4192 80.8137 21.4903 80.6495 21.6275C80.4663 21.7442 80.3677 21.9092 80.3677 22.1075V23.1741L83.7569 21.9555ZM80.417 25.718V25.8821C80.417 26.0934 80.4784 26.2685 80.5881 26.3852C80.6746 26.5382 80.7843 26.6197 80.9433 26.6197H86.4859V29.2803H80.5891C80.0507 29.2803 79.6341 29.234 79.3413 29.1394C79.0191 29.0352 78.7227 28.8637 78.4719 28.6363C78.179 28.3545 77.9707 28.0727 77.8731 27.7689C77.7624 27.4639 77.702 27.0544 77.702 26.5492L77.6769 21.229C77.701 19.623 78.5825 18.8028 80.3073 18.7797H83.9531C85.6296 18.8028 86.4859 19.6582 86.5091 21.3226V23.4207L80.417 25.718ZM92.2238 29.2803C91.8192 29.2803 91.4409 29.2451 91.0977 29.1746C90.7087 29.105 90.3429 28.9401 90.0331 28.6946C89.6895 28.42 89.4238 28.0602 89.2623 27.6511C89.1105 27.2424 89.0361 26.809 89.0429 26.3731V21.4162C89.0298 21.0177 89.067 20.6544 89.1646 20.3495C89.2502 20.0446 89.4464 19.7407 89.7403 19.4469C90.0703 19.143 90.4004 18.9316 90.7556 18.826C91.0977 18.7445 91.4771 18.6972 91.9058 18.6972H96.0406V19.3181H92.0034C91.294 19.3181 90.7304 19.4589 90.3148 19.7407C89.8992 20.0446 89.6789 20.5729 89.6789 21.3226V26.2806C89.6789 26.6317 89.7392 26.9719 89.8499 27.2999C89.9606 27.6159 90.1558 27.9087 90.4245 28.1553C90.7184 28.3666 91.0122 28.5075 91.294 28.5538C91.5868 28.6121 91.9058 28.6473 92.2479 28.6473H96.102V29.2692H92.2238V29.2803ZM106.684 22.8461H101.264C100.616 22.8582 100.102 23.0574 99.7347 23.4197C99.3563 23.795 99.1722 24.3112 99.1722 24.9673V26.5492C99.1722 26.8541 99.2094 27.1359 99.2698 27.3945C99.3432 27.6632 99.5022 27.8977 99.7719 28.0969C100.237 28.4722 100.763 28.6473 101.326 28.6473H104.629C105.999 28.6363 106.696 27.9439 106.696 26.5613L106.684 22.8461ZM107.332 26.4204C107.332 26.8189 107.296 27.1711 107.247 27.476C107.161 27.8151 106.978 28.1321 106.708 28.437C106.146 29.0106 105.436 29.2924 104.604 29.2692H101.375C100.53 29.2692 99.8575 29.0348 99.3322 28.5548C98.7928 28.0848 98.5241 27.4287 98.5241 26.5845V24.9905C98.5483 23.1862 99.4902 22.2604 101.338 22.2252H106.708V21.5208C106.718 20.9706 106.532 20.4347 106.183 20.0094C105.989 19.7477 105.72 19.5514 105.412 19.4469C105.083 19.3691 104.747 19.33 104.409 19.3301H98.5483V18.7093H104.103C104.616 18.7093 105.069 18.7445 105.486 18.8149C105.693 18.8491 105.889 18.9316 106.072 19.0484C106.269 19.154 106.44 19.3181 106.599 19.5294C107.1 20.1503 107.345 20.8536 107.332 21.6506V26.4204ZM113.401 19.3301C111.896 19.3533 111.15 20.1392 111.186 21.6858V29.2692H110.538V21.6979C110.501 19.7055 111.492 18.7093 113.511 18.7093H114.232V19.3301H113.401ZM124.325 19.3301H119.212C118.845 19.3301 118.515 19.3653 118.221 19.4469C117.915 19.5173 117.609 19.6934 117.328 19.9862C117.059 20.2559 116.888 20.5256 116.814 20.7832C116.716 21.0529 116.68 21.3689 116.692 21.7442V26.5845C116.692 27.3935 116.936 27.9329 117.425 28.2257C117.679 28.3655 117.951 28.4682 118.233 28.5306C118.527 28.601 118.869 28.6473 119.224 28.6473H121.463C122.295 28.6473 122.98 28.4602 123.506 28.0969C124.032 27.7447 124.301 27.147 124.325 26.2916V19.3301ZM124.974 26.3389C124.913 28.3424 123.812 29.3276 121.659 29.2803H119.261C118.76 29.2803 118.307 29.234 117.903 29.1636C117.487 29.0579 117.095 28.8234 116.716 28.4491C116.435 28.109 116.251 27.7688 116.177 27.4166C116.073 27.0393 116.032 26.6472 116.056 26.2564V21.7452C116.08 19.7175 117.157 18.6982 119.261 18.7213H124.338V15.2879H124.986V26.3399" fill="#CACEE0"/>
<path d="M2.16739 18.3783C2.3757 18.2847 2.59608 18.2142 2.80438 18.179C3.19584 16.3978 4.84719 15.0615 6.81654 15.0615C8.79896 15.0615 10.4382 16.3978 10.8297 18.179C11.4415 18.2847 11.9427 18.5191 12.3221 18.8714C12.3341 18.5312 12.3221 18.2032 12.2858 17.8862C12.0413 15.1913 9.67949 13.0811 6.80446 13.0811C3.8439 13.0811 1.43379 15.3312 1.31102 18.1327C1.29895 18.3783 1.28687 18.6248 1.29895 18.8945C1.54348 18.6953 1.82525 18.5191 2.16739 18.3783Z" fill="#8B91AD"/>
<path d="M10.0229 18.7769H3.42853C3.11054 18.7769 2.78047 18.8473 2.4504 18.9882C2.11932 19.1291 1.85064 19.2931 1.64233 19.4913C1.2388 19.9603 1.01842 20.6526 1.00635 21.5543V26.4892C1.01842 27.3919 1.22673 28.0832 1.64233 28.5521C1.86272 28.7514 2.11932 28.9144 2.4504 29.0553C2.79255 29.1962 3.12261 29.2666 3.42853 29.2666H10.0229C11.7235 29.2555 12.592 28.3529 12.6171 26.5828V21.4496C12.592 19.6795 11.7235 18.7889 10.0229 18.7769Z" fill="#8B91AD"/>
</svg>
