<svg width="74" height="30" viewBox="0 0 74 30" fill="none" xmlns="http://www.w3.org/2000/svg">
<path d="M52.1878 6.48482C53.8193 6.48482 55.1391 5.10057 55.1391 3.3944C55.1391 1.68565 53.818 0.298828 52.1878 0.298828C50.5589 0.298828 49.239 1.68565 49.239 3.39311C49.239 3.80002 49.3163 4.20177 49.4644 4.57777C49.6124 4.9512 49.8288 5.29243 50.103 5.58087C50.3773 5.86802 50.7018 6.09594 51.0598 6.25046C51.4178 6.40498 51.8015 6.48482 52.1878 6.48482ZM29.5878 8.15365C29.4539 8.5142 28.4959 11.3458 26.1768 14.2868V1.70626L20.0011 2.98621V25.7922H26.178V18.7435C27.9679 21.5545 28.8513 25.7909 28.8513 25.7909H36.2489C35.5188 22.6001 32.3177 16.718 32.3177 16.718C34.2298 14.1253 35.6948 11.231 36.652 8.15493L29.5878 8.15365ZM45.8241 7.91671C40.2935 8.10343 37.4838 10.7058 37.4838 15.8797V25.7909H43.5192V17.7082C43.5192 14.6113 43.9055 13.2915 47.4118 13.1563V8.00814C46.822 7.8768 45.8241 7.91671 45.8241 7.91671ZM9.6443 10.6685C8.88715 10.617 7.13591 10.4972 7.13591 8.84513C7.13591 6.84923 9.65718 6.84923 10.6036 6.84923C12.266 6.84923 14.419 7.3643 15.9578 7.84718C16.4819 8.07639 17.0124 8.29014 17.5468 8.48973L17.615 8.50904V3.04158L17.5223 3.01325C15.7067 2.34623 13.5975 1.70626 9.68293 1.70626C2.93551 1.70626 0.546875 5.82682 0.546875 9.35891C0.546875 11.3934 1.37871 16.1849 9.10476 16.7373C9.76019 16.7798 11.4973 16.8854 11.4973 18.5954C11.4973 20.0054 10.0744 20.8372 7.68188 20.8372C5.06017 20.8372 2.51315 20.1368 0.967944 19.471V25.0982C3.2819 25.7343 5.89072 26.0523 8.94767 26.0523C15.5444 26.0523 18.4996 22.1532 18.4996 18.2876C18.4996 13.9044 15.1929 11.0586 9.64559 10.6672L9.6443 10.6685ZM49.1991 25.7948H55.1842V8.17425H49.1965L49.1991 25.7948ZM66.4565 2.83169V25.7948H72.4442V1.70754L66.4565 2.8304V2.83169ZM57.7209 2.83169L63.7022 1.70883V25.7948H57.7209V2.82782V2.8304V2.83169Z" fill="#CACEE0"/>
</svg>
