<svg width="108" height="52" viewBox="0 0 108 52" fill="none" xmlns="http://www.w3.org/2000/svg">
<g filter="url(#filter0_d_153_2273)">
<path d="M32.8045 19.3037C30.708 21.077 30.626 24.9725 33.8939 25.3529H40.1665C41.8828 25.1136 43.1157 23.529 43.6949 22.5707C44.3226 21.5322 43.9565 20.7317 43.6949 20.4612L48.0007 16.2204L46.4909 28.7727L33.5815 28.7944L33.5169 31.8605L46.1196 31.8594C45.8849 33.8104 44.2298 35.2785 42.2647 35.2789L33.456 35.2803L33.4116 38.3686H45.3366C45.1019 40.3202 43.4476 41.7898 41.4819 41.7928L30.7321 41.8092V25.4687C30.7881 24.5511 29.846 23.8721 29.3834 23.613L29.2953 23.5662C28.8599 23.7805 27.8718 24.4386 27.8911 25.3835V28.7891L14.9693 28.7902L15.3956 31.8582H27.8911V41.7875L16.9545 41.7503C14.9873 41.7436 13.3336 40.2718 13.0987 38.3188H25.5104L25.4118 35.278H17.2475C14.7632 35.278 12.6594 33.4463 12.3174 30.9857L11.5677 25.5909L10.4604 16.3857L14.5985 20.4612C14.337 20.7317 13.9708 21.5322 14.5985 22.5707C15.1949 23.5573 16.2155 25.2073 18.2398 25.3702L24.4905 25.3696C27.9756 25.1085 27.8817 21.1078 25.7488 19.3037L29.2763 11.7935L32.8045 19.3037Z" fill="#FF4F67"/>
</g>
<path d="M65.1411 36.3241H60.0721V37.6066H64.6698V38.6639H60.0721V40.0194H65.1411V41.0767H58.7726V35.2681H65.1411V36.3241Z" fill="white"/>
<path d="M71.4341 37.1522H71.4744L74.1632 35.2681H75.2518V41.0767H73.9523V36.8918L72.1073 38.1274V41.0767H70.8078V38.1274L68.9562 36.8918V41.0767H67.6554V35.2681H68.7453L71.4341 37.1522Z" fill="white"/>
<path fill-rule="evenodd" clip-rule="evenodd" d="M82.882 35.2681C83.483 35.2681 83.9488 35.4193 84.2791 35.7225C84.6148 36.0258 84.783 36.4867 84.783 37.104C84.7829 37.721 84.6146 38.181 84.2791 38.4842C83.9488 38.7874 83.483 38.9399 82.882 38.9399H79.3156V41.0767H78.0148V35.2681H82.882ZM79.3156 37.8748L82.727 37.884C82.9653 37.884 83.1468 37.8234 83.2713 37.7043C83.4012 37.5852 83.4666 37.3853 83.4666 37.104C83.4666 36.817 83.4013 36.6162 83.2713 36.5024C83.1468 36.3833 82.9653 36.3241 82.727 36.3241H79.3156V37.8748Z" fill="white"/>
<path d="M88.5161 41.0767H87.2166V35.2681H88.5161V41.0767Z" fill="white"/>
<path fill-rule="evenodd" clip-rule="evenodd" d="M96.1424 35.2681C96.7436 35.2681 97.2105 35.4192 97.5409 35.7225C97.8764 36.0258 98.0435 36.4868 98.0435 37.104C98.0434 37.629 97.9224 38.0406 97.6789 38.3384C97.4352 38.6362 97.088 38.8224 96.6385 38.8983L97.9784 41.0767H96.5005L95.257 38.9399H92.5773V41.0767H91.2765V35.2681H96.1424ZM92.5773 37.8748L95.9888 37.884C96.227 37.8839 96.4085 37.8234 96.533 37.7043C96.6628 37.5852 96.7283 37.3852 96.7284 37.104C96.7284 36.817 96.6629 36.6162 96.533 36.5024C96.4085 36.3833 96.227 36.3241 95.9888 36.3241H92.5773V37.8748Z" fill="white"/>
<path d="M107.014 36.3241H101.944V37.6066H106.542V38.6639H101.944V40.0194H107.014V41.0767H100.645V35.2681H107.014V36.3241Z" fill="white"/>
<path d="M70.9992 22.9972L62.5565 22.9816C62.1124 22.9816 61.7666 23.085 61.5187 23.2915C61.271 23.4876 61.1464 23.8074 61.1463 24.2511C61.1463 24.6952 61.2709 25.0212 61.5187 25.2277C61.7666 25.4239 62.1125 25.522 62.5565 25.522H68.102C69.2481 25.522 70.1362 25.8058 70.7661 26.3735C71.4064 26.9312 71.727 27.7633 71.727 28.8683C71.727 29.9628 71.4063 30.7939 70.7661 31.3618C70.1362 31.9297 69.2483 32.2134 68.102 32.2134H58.9315V30.2004L67.839 30.216C68.2933 30.216 68.6393 30.1126 68.8768 29.9061C69.1246 29.6893 69.2491 29.3432 69.2492 28.8683C69.2492 28.3935 69.1244 28.0528 68.8768 27.8462C68.6393 27.6293 68.2934 27.5207 67.839 27.5207H62.2935C61.1472 27.5207 60.254 27.2463 59.6138 26.6991C58.9838 26.1414 58.6685 25.3252 58.6685 24.2511C58.6686 23.1774 58.9839 22.3674 59.6138 21.8201C60.2541 21.2625 61.1472 20.9829 62.2935 20.9829H70.9992V22.9972Z" fill="white"/>
<path fill-rule="evenodd" clip-rule="evenodd" d="M83.0252 21.061C84.1713 21.0611 85.0594 21.35 85.6893 21.9282C86.3294 22.5065 86.6501 23.3841 86.6502 24.561C86.6502 25.7383 86.3296 26.6168 85.6893 27.1951C85.0594 27.7734 84.1713 28.0623 83.0252 28.0623H76.2244V32.1366H73.7453V21.061H83.0252ZM76.2244 26.0337L82.731 26.0493C83.1851 26.0492 83.5313 25.9353 83.7687 25.7082C84.0165 25.481 84.1398 25.098 84.1398 24.561C84.1397 24.0141 84.0164 23.632 83.7687 23.4152C83.5313 23.1881 83.1851 23.0741 82.731 23.0741H76.2244V26.0337Z" fill="white"/>
<path d="M91.1359 32.1366H88.658V21.061H91.1359V32.1366Z" fill="white"/>
<path d="M104.114 29.0233V21.061H106.593V32.1366H104.084L96.2453 24.1587V32.1366H93.7661V21.061H96.2765L104.114 29.0233Z" fill="white"/>
<defs>
<filter id="filter0_d_153_2273" x="0.000232697" y="-9.29832e-05" width="58.4605" height="50.9363" filterUnits="userSpaceOnUse" color-interpolation-filters="sRGB">
<feFlood flood-opacity="0" result="BackgroundImageFix"/>
<feColorMatrix in="SourceAlpha" type="matrix" values="0 0 0 0 0 0 0 0 0 0 0 0 0 0 0 0 0 0 127 0" result="hardAlpha"/>
<feOffset dy="-1.33333"/>
<feGaussianBlur stdDeviation="5.23011"/>
<feComposite in2="hardAlpha" operator="out"/>
<feColorMatrix type="matrix" values="0 0 0 0 1 0 0 0 0 0 0 0 0 0 0.0156863 0 0 0 0.58 0"/>
<feBlend mode="normal" in2="BackgroundImageFix" result="effect1_dropShadow_153_2273"/>
<feBlend mode="normal" in="SourceGraphic" in2="effect1_dropShadow_153_2273" result="shape"/>
</filter>
</defs>
</svg>
