<svg width="60" height="58" viewBox="0 0 60 58" fill="none" xmlns="http://www.w3.org/2000/svg">
<g filter="url(#filter0_d_78_3089)">
<path fill-rule="evenodd" clip-rule="evenodd" d="M30 12C26.7613 12 23.5773 12.2373 20.464 12.6947C17.8267 13.0813 16 15.3933 16 17.988V26.012C16 28.6067 17.8267 30.9187 20.464 31.3053C21.6333 31.4773 22.812 31.6173 24 31.7267V37C24.0002 37.1977 24.0589 37.3908 24.1688 37.5551C24.2787 37.7194 24.4348 37.8474 24.6174 37.9231C24.8001 37.9987 25.001 38.0185 25.1948 37.98C25.3887 37.9414 25.5668 37.8463 25.7067 37.7067L31.2853 32.1293C31.3801 32.036 31.507 31.9826 31.64 31.98C34.3147 31.9133 36.9493 31.6867 39.536 31.3053C42.1733 30.9187 44 28.608 44 26.012V17.988C44 15.392 42.1733 13.0813 39.536 12.6947C36.3785 12.2312 33.1913 11.999 30 12ZM25 20.5C24.6022 20.5 24.2206 20.658 23.9393 20.9393C23.658 21.2206 23.5 21.6022 23.5 22C23.5 22.3978 23.658 22.7794 23.9393 23.0607C24.2206 23.342 24.6022 23.5 25 23.5C25.3978 23.5 25.7794 23.342 26.0607 23.0607C26.342 22.7794 26.5 22.3978 26.5 22C26.5 21.6022 26.342 21.2206 26.0607 20.9393C25.7794 20.658 25.3978 20.5 25 20.5ZM28.5 22C28.5 21.6022 28.658 21.2206 28.9393 20.9393C29.2206 20.658 29.6022 20.5 30 20.5C30.3978 20.5 30.7794 20.658 31.0607 20.9393C31.342 21.2206 31.5 21.6022 31.5 22C31.5 22.3978 31.342 22.7794 31.0607 23.0607C30.7794 23.342 30.3978 23.5 30 23.5C29.6022 23.5 29.2206 23.342 28.9393 23.0607C28.658 22.7794 28.5 22.3978 28.5 22ZM35 20.5C34.6022 20.5 34.2206 20.658 33.9393 20.9393C33.658 21.2206 33.5 21.6022 33.5 22C33.5 22.3978 33.658 22.7794 33.9393 23.0607C34.2206 23.342 34.6022 23.5 35 23.5C35.3978 23.5 35.7794 23.342 36.0607 23.0607C36.342 22.7794 36.5 22.3978 36.5 22C36.5 21.6022 36.342 21.2206 36.0607 20.9393C35.7794 20.658 35.3978 20.5 35 20.5Z" fill="#FFCF68"/>
</g>
<defs>
<filter id="filter0_d_78_3089" x="-2" y="-3" width="64" height="64" filterUnits="userSpaceOnUse" color-interpolation-filters="sRGB">
<feFlood flood-opacity="0" result="BackgroundImageFix"/>
<feColorMatrix in="SourceAlpha" type="matrix" values="0 0 0 0 0 0 0 0 0 0 0 0 0 0 0 0 0 0 127 0" result="hardAlpha"/>
<feOffset dy="4"/>
<feGaussianBlur stdDeviation="8"/>
<feColorMatrix type="matrix" values="0 0 0 0 1 0 0 0 0 0.811765 0 0 0 0 0.407843 0 0 0 0.32 0"/>
<feBlend mode="normal" in2="BackgroundImageFix" result="effect1_dropShadow_78_3089"/>
<feBlend mode="normal" in="SourceGraphic" in2="effect1_dropShadow_78_3089" result="shape"/>
</filter>
</defs>
</svg>
