<svg width="60" height="58" viewBox="0 0 60 58" fill="none" xmlns="http://www.w3.org/2000/svg">
<g filter="url(#filter0_d_78_3095)">
<path fill-rule="evenodd" clip-rule="evenodd" d="M21.5 17.0049C21.5 18.1309 21.872 19.1689 22.5 20.0049H18C17.4696 20.0049 16.9609 20.2156 16.5858 20.5907C16.2107 20.9657 16 21.4745 16 22.0049C16 22.5353 16.2107 23.044 16.5858 23.4191C16.9609 23.7942 17.4696 24.0049 18 24.0049H28.5V20.0049H31.5V24.0049H42C42.5304 24.0049 43.0391 23.7942 43.4142 23.4191C43.7893 23.044 44 22.5353 44 22.0049C44 21.4745 43.7893 20.9657 43.4142 20.5907C43.0391 20.2156 42.5304 20.0049 42 20.0049H37.5C38.2581 18.9967 38.6071 17.7393 38.477 16.4846C38.347 15.2299 37.7476 14.0708 36.7989 13.2395C35.8502 12.4082 34.6224 11.9662 33.3615 12.002C32.1006 12.0379 30.8999 12.549 30 13.4329C29.2967 12.7436 28.4056 12.2772 27.4383 12.0924C26.4711 11.9076 25.4708 12.0126 24.5629 12.3941C23.6551 12.7756 22.8801 13.4167 22.3352 14.237C21.7903 15.0572 21.4997 16.0201 21.5 17.0049ZM28.498 16.9289C28.4831 16.5368 28.3532 16.1578 28.1245 15.839C27.8958 15.5202 27.5783 15.2757 27.2117 15.136C26.8451 14.9963 26.4455 14.9675 26.0626 15.0532C25.6797 15.1389 25.3305 15.3353 25.0584 15.618C24.7863 15.9007 24.6034 16.2572 24.5324 16.643C24.4615 17.0289 24.5055 17.4272 24.6592 17.7882C24.8129 18.1492 25.0693 18.457 25.3966 18.6734C25.7239 18.8897 26.1077 19.005 26.5 19.0049H28.5L28.498 16.9289ZM33.498 15.0049C32.9805 15.0045 32.483 15.2048 32.11 15.5636C31.737 15.9223 31.5177 16.4117 31.498 16.9289L31.5 17.0049V19.0049H33.498C34.0284 19.0049 34.5371 18.7942 34.9122 18.4191C35.2873 18.044 35.498 17.5353 35.498 17.0049C35.498 16.4745 35.2873 15.9657 34.9122 15.5907C34.5371 15.2156 34.0284 15.0049 33.498 15.0049Z" fill="#FFCF68"/>
<path d="M28.5 27.0049H18V34.0049C18 35.0658 18.4214 36.0832 19.1716 36.8333C19.9217 37.5835 20.9391 38.0049 22 38.0049H28.5V27.0049ZM31.5 38.0049V27.0049H42V34.0049C42 35.0658 41.5786 36.0832 40.8284 36.8333C40.0783 37.5835 39.0609 38.0049 38 38.0049H31.5Z" fill="#FFCF68"/>
</g>
<defs>
<filter id="filter0_d_78_3095" x="-2" y="-1.99512" width="64" height="64" filterUnits="userSpaceOnUse" color-interpolation-filters="sRGB">
<feFlood flood-opacity="0" result="BackgroundImageFix"/>
<feColorMatrix in="SourceAlpha" type="matrix" values="0 0 0 0 0 0 0 0 0 0 0 0 0 0 0 0 0 0 127 0" result="hardAlpha"/>
<feOffset dy="4"/>
<feGaussianBlur stdDeviation="8"/>
<feColorMatrix type="matrix" values="0 0 0 0 1 0 0 0 0 0.811765 0 0 0 0 0.407843 0 0 0 0.32 0"/>
<feBlend mode="normal" in2="BackgroundImageFix" result="effect1_dropShadow_78_3095"/>
<feBlend mode="normal" in="SourceGraphic" in2="effect1_dropShadow_78_3095" result="shape"/>
</filter>
</defs>
</svg>
